<?xml version="1.0" encoding="utf-8"?>
<!-- Generator: Adobe Illustrator 24.2.1, SVG Export Plug-In . SVG Version: 6.00 Build 0)  -->
<svg version="1.1" id="Layer_1" xmlns="http://www.w3.org/2000/svg" xmlns:xlink="http://www.w3.org/1999/xlink" x="0px" y="0px"
	 viewBox="0 0 36 36" style="enable-background:new 0 0 36 36;" xml:space="preserve">
<style type="text/css">
	.st0{fill:#FFFFFF;}
</style>
<g>
	<path class="st0" d="M17.5,16.6c0.5,0,0.9-0.1,1.3-0.4c0.3-0.3,0.5-0.7,0.5-1.2s-0.2-0.9-0.5-1.2s-0.7-0.4-1.3-0.4
		c-0.5,0-0.9,0.1-1.3,0.4c-0.3,0.3-0.5,0.7-0.5,1.2s0.2,0.9,0.5,1.2C16.5,16.5,16.9,16.6,17.5,16.6z"/>
	<path class="st0" d="M17.5,18.8c-1.3,0-2.2,0.7-2.2,1.9c0,1.2,0.9,1.9,2.2,1.9s2.2-0.7,2.2-1.9C19.7,19.5,18.8,18.8,17.5,18.8z"/>
	<path class="st0" d="M18,0C8.1,0,0,8.1,0,18s8.1,18,18,18s18-8.1,18-18S27.9,0,18,0z M10.5,24.9H7.8V14l-2.6,0.7l-0.7-2.3l3.6-1.3
		h2.4L10.5,24.9L10.5,24.9z M17.5,25.1c-3.1,0-4.9-1.6-4.9-4.1c0-1.5,0.6-2.5,1.9-3.3c-1-0.7-1.4-1.6-1.4-2.8c0-1.3,0.4-2.3,1.3-3
		c0.9-0.7,1.9-1.1,3.2-1.1s2.3,0.4,3.2,1.1c0.8,0.7,1.3,1.7,1.3,3c0,1.2-0.5,2.2-1.4,2.8c1.3,0.8,1.9,1.9,1.9,3.3
		C22.4,23.6,20.5,25.1,17.5,25.1z M29.7,19.2v3.2h-2.4v-3.2h-3.2v-2.4h3.2v-3.2h2.4v3.2h3.2v2.4H29.7z"/>
</g>
</svg>
