<?xml version="1.0" encoding="utf-8"?>
<!-- Generator: Adobe Illustrator 24.1.0, SVG Export Plug-In . SVG Version: 6.00 Build 0)  -->
<svg version="1.1" id="Layer_1" xmlns="http://www.w3.org/2000/svg" xmlns:xlink="http://www.w3.org/1999/xlink" x="0px" y="0px"
	 width="150px" height="50px" viewBox="0 0 150 50" style="enable-background:new 0 0 150 50;" xml:space="preserve">
<style type="text/css">
	.st0{fill:#FFFFFF;}
</style>
<g>
	<g>
		<g>
			<path class="st0" d="M17.6,40.4l-0.7-3.1h-3.7l-0.7,3.1H8.9L13.2,22H17l4.4,18.4H17.6z M16.3,34.5c-0.4-1.8-0.8-3.5-1-5.3
				c-0.1-0.8-0.2-1.6-0.3-2.4c-0.2,2.6-0.7,5.2-1.2,7.7H16.3L16.3,34.5z"/>
		</g>
		<g>
			<path class="st0" d="M30.3,26.2c-0.7-0.6-1.6-1.2-2.6-1.2c-1.1,0-1.8,0.7-1.8,1.8c0,3.2,5.5,3.1,5.5,8.3c0,3.2-1.9,5.7-5.2,5.7
				c-1.1,0-2.2-0.3-3.2-0.9v-3.5c0.8,0.6,1.7,1,2.7,1c1.2,0,2.2-0.8,2.2-2c0-0.3-0.1-0.6-0.2-0.9c-0.3-0.7-1.4-1.3-2-1.7
				c-2.1-1.4-3.4-2.8-3.4-5.4c0-2.9,1.7-5.4,4.8-5.4c1.2,0,2.2,0.3,3.2,0.9L30.3,26.2L30.3,26.2z"/>
		</g>
		<g>
			<path class="st0" d="M39.9,40.4L36.5,31v9.4h-3.6V22h3.6v8.2l3.1-8.2h3.7l-3.4,8.5l3.8,9.9C43.7,40.4,39.9,40.4,39.9,40.4z"/>
		</g>
		<g>
			<path class="st0" d="M56,30.2c0,0.5,0,0.9,0,1.4c0,1.3-0.1,2.6-0.3,3.9c-0.6,2.8-2.5,5.2-5.6,5.2c-5,0-6.5-5.4-6.5-9.4
				c0-4.2,1.4-9.6,6.5-9.6c2.8,0,4.6,1.8,5.4,4.4L52,27.5c-0.2-1.1-0.5-2.5-1.8-2.5c-2.5,0-2.7,4.6-2.7,6.3c0,1.8,0.1,6.2,2.7,6.2
				c2,0,2.2-2.5,2.2-4h-2.3v-3.3H56L56,30.2z"/>
		</g>
		<g>
			<path class="st0" d="M64.9,40.4l-0.7-3.1h-3.7l-0.7,3.1h-3.6L60.6,22h3.8l4.4,18.4H64.9z M63.7,34.5c-0.4-1.8-0.8-3.5-1-5.3
				c-0.1-0.8-0.2-1.6-0.3-2.4c-0.2,2.6-0.7,5.2-1.2,7.7H63.7L63.7,34.5z"/>
		</g>
		<g>
			<path class="st0" d="M82.8,40.4l-0.9-13.3c-0.1,1.4-0.3,2.8-0.6,4.3l-1.6,9h-2.8l-1.7-8.3c-0.2-0.9-0.4-1.8-0.5-2.8l-0.2-2.2
				l-0.6,13.3H70L71.6,22h4.8l1.8,10.9L79.7,22h4.9l1.9,18.4H82.8z"/>
		</g>
		<g>
			<path class="st0" d="M91.9,22c1,0,2.6,0.1,3.9,1.3c1,1,1.5,2.5,1.5,4c0,0.9-0.2,1.8-0.9,2.6c-0.3,0.4-0.8,0.8-1.5,1.1
				c1.2,0.4,1.8,1.3,2,1.6c0.5,0.9,0.6,1.9,0.6,2.6c0,1.4-0.4,2.6-1.4,3.6c-1.4,1.4-3.3,1.6-4.3,1.6H88V22H91.9z M91.7,29.6
				c0.6,0,1.2-0.3,1.6-0.6c0.5-0.5,0.6-1.3,0.6-1.7c0-0.4-0.1-1.1-0.6-1.7C93,25.3,92.5,25,91.7,25V29.6z M91.7,37.3
				c0.6,0,1.2-0.2,1.7-0.6c0.4-0.4,0.7-1,0.7-1.8c0-0.9-0.3-1.5-0.7-1.9c-0.4-0.4-1.1-0.6-1.6-0.6L91.7,37.3L91.7,37.3z"/>
		</g>
		<g>
			<path class="st0" d="M99.4,40.4V22h3.6v15h3.8v3.5L99.4,40.4L99.4,40.4z"/>
		</g>
		<g>
			<path class="st0" d="M108.3,40.4V22h7.3v3.4H112v4h3.2v3.5H112V37h3.7v3.4H108.3z"/>
		</g>
		<g>
			<path class="st0" d="M124.3,40.4l-3.2-8.5v8.5h-3.6V22h3.9c1.4,0,2.8,0.1,4,0.9c1.5,1,2.2,2.8,2.2,4.5c0,2.1-0.8,3.6-2.6,4.7
				l3.2,8.4L124.3,40.4L124.3,40.4z M121.1,29.9c0.2,0,0.4,0,0.6,0c1.6,0,2.3-1.1,2.3-2.6s-0.7-2.5-2.3-2.5H121L121.1,29.9
				L121.1,29.9z"/>
		</g>
		<g>
			<path class="st0" d="M137,26.2c-0.7-0.6-1.6-1.2-2.6-1.2c-1.1,0-1.8,0.7-1.8,1.8c0,3.2,5.5,3.1,5.5,8.3c0,3.2-1.9,5.7-5.2,5.7
				c-1.1,0-2.2-0.3-3.2-0.9v-3.5c0.8,0.6,1.7,1,2.7,1c1.2,0,2.2-0.8,2.2-2c0-0.3-0.1-0.6-0.2-0.9c-0.3-0.7-1.4-1.3-2-1.7
				c-2.1-1.4-3.4-2.8-3.4-5.4c0-2.9,1.7-5.4,4.8-5.4c1.2,0,2.2,0.3,3.2,0.9V26.2L137,26.2z"/>
		</g>
		<g>
			<circle class="st0" cx="140.9" cy="24.5" r="2.4"/>
		</g>
	</g>
	<g>
		<path class="st0" d="M31.4,18.4l-1.7-3.1h-1.4v3.1h-1.8V9.7h4.1c1.8,0,2.9,1.2,2.9,2.8c0,1.5-1,2.4-1.9,2.6l2,3.3H31.4z
			 M31.6,12.5c0-0.7-0.6-1.2-1.3-1.2h-2v2.3h2C31,13.7,31.6,13.3,31.6,12.5z"/>
		<path class="st0" d="M36.2,18.4V9.7h6.1v1.6H38v1.8h4.2v1.6H38v2h4.3v1.6L36.2,18.4L36.2,18.4z"/>
		<path class="st0" d="M47.5,18.4l-3.3-8.7h2.1l2.4,6.7L51,9.7h2.1l-3.3,8.7H47.5z"/>
		<path class="st0" d="M55.2,18.4V9.7H57v8.7H55.2z"/>
		<path class="st0" d="M60.1,18.4V9.7h6.1v1.6H62v1.8h4.2v1.6H62v2h4.3v1.6L60.1,18.4L60.1,18.4z"/>
		<path class="st0" d="M75.6,18.4l-1.5-6l-1.5,6h-2l-2.5-8.7h2.1l1.5,6.3l1.7-6.3h1.4l1.6,6.3L78,9.7h2.1l-2.5,8.7H75.6z"/>
		<path class="st0" d="M82.2,18.4V9.7h6.1v1.6H84v1.8h4.2v1.6H84v2h4.3v1.6L82.2,18.4L82.2,18.4z"/>
		<path class="st0" d="M91.1,18.4V9.7h3.4c2.7,0,4.6,1.7,4.6,4.3s-1.9,4.3-4.6,4.3h-3.4V18.4z M97.2,14.1c0-1.5-0.9-2.7-2.7-2.7
			h-1.6v5.4h1.6C96.2,16.8,97.2,15.5,97.2,14.1z"/>
		<path class="st0" d="M106.4,18.4V9.7h4.6c1.7,0,2.5,1.1,2.5,2.2s-0.7,1.8-1.5,2c0.9,0.1,1.7,1,1.7,2.1c0,1.3-0.9,2.4-2.5,2.4
			H106.4z M111.5,12.3c0-0.5-0.4-0.9-1-0.9h-2.3v1.8h2.3C111.2,13.2,111.5,12.8,111.5,12.3z M111.7,15.8c0-0.5-0.4-1-1.1-1h-2.4v2
			h2.4C111.3,16.8,111.7,16.4,111.7,15.8z"/>
		<path class="st0" d="M118.3,18.4v-3.5L115,9.7h2.1l2.1,3.5l2.1-3.5h2.1l-3.3,5.1v3.5h-1.8V18.4z"/>
	</g>
</g>
</svg>
