<?xml version="1.0" encoding="utf-8"?>
<!-- Generator: Adobe Illustrator 24.2.1, SVG Export Plug-In . SVG Version: 6.00 Build 0)  -->
<svg version="1.1" id="Layer_1" xmlns="http://www.w3.org/2000/svg" xmlns:xlink="http://www.w3.org/1999/xlink" x="0px" y="0px"
	 viewBox="0 0 60 36" style="enable-background:new 0 0 60 36;" xml:space="preserve">
<style type="text/css">
	.st0{fill:#FFFFFF;}
</style>
<g transform="translate(-7.143054,659.000000) scale(0.100000,-0.100000)">
	<path class="st0" d="M189.65,6439.411c-46.587-82.876-84.729-150.974-84.845-151.36c-0.173-0.661,21.714-0.772,137.693-0.772
		H380.42v67.822v67.822h-51.526l-51.585-0.056l-10.455-19.133l-10.398-19.134l39.579-0.165l39.579-0.111v-25.365v-25.365H261.51
		h-74.1l2.01,3.474c1.092,1.875,28.951,50.454,61.925,107.91l60.029,104.491h11.949h12.006l0.173-44.499l0.115-44.554h22.403h22.402
		v64.791V6590h-53.021h-53.021L189.65,6439.411z"/>
	<path class="st0" d="M393.634,6438.638v-151.36h23.551h23.551v48.523v48.523l46.012-0.11l46.013-0.165l27.055-47.696
		c14.935-26.247,27.344-48.028,27.573-48.414c0.345-0.497,6.261-0.662,25.736-0.662c13.844,0,25.218,0.165,25.218,0.331
		c0,0.22-38.201,68.318-84.844,151.361L468.598,6590h-37.453h-37.51C393.634,6590,393.634,6438.638,393.634,6438.638z
		 M475.835,6483.304c18.898-32.974,34.408-60.048,34.408-60.159c0-0.11-15.624-0.221-34.754-0.221h-34.754v60.489
		c0,33.25,0.172,60.323,0.345,60.159C441.254,6543.35,456.88,6516.277,475.835,6483.304z"/>
	<path class="st0" d="M96.821,6275.037c-0.229-0.385-6.032-10.643-12.925-22.773l-12.465-22.058l149.871-0.165
		c82.432-0.056,217.425-0.056,299.972,0l150.157,0.165l-12.753,22.607l-12.753,22.608l-274.351,0.165
		C152.542,6275.699,97.223,6275.589,96.821,6275.037z"/>
</g>
</svg>
