<?xml version="1.0" encoding="utf-8"?>
<!-- Generator: Adobe Illustrator 24.2.1, SVG Export Plug-In . SVG Version: 6.00 Build 0)  -->
<svg version="1.1" id="Layer_1" xmlns="http://www.w3.org/2000/svg" xmlns:xlink="http://www.w3.org/1999/xlink" x="0px" y="0px"
	 viewBox="0 0 32 36" style="enable-background:new 0 0 32 36;" xml:space="preserve">
<style type="text/css">
	.st0{fill:#FFFFFF;}
</style>
<g>
	<path class="st0" d="M5.015,33.387C4.946,34.97,3.9,36,2.5,36c-0.734,0-1.365-0.287-1.863-0.854C0.222,34.676,0,34.066,0,33.38
		c0-0.694,0.263-1.331,0.769-1.836c0.478-0.484,1.067-0.722,1.787-0.722c1.004,0,1.78,0.498,2.161,1.359h-0.88
		c-0.326-0.42-0.783-0.637-1.337-0.637c-0.464,0-0.894,0.182-1.219,0.518c-0.346,0.357-0.54,0.848-0.54,1.324
		c0,0.525,0.18,1.002,0.499,1.338c0.339,0.357,0.803,0.56,1.261,0.56c0.741,0,1.323-0.4,1.697-1.198h-2.23v-0.701h3.047V33.387z"/>
	<path class="st0" d="M5.781,35.902H5.026l1.926-4.982h0.693l1.925,4.982H8.787l-0.54-1.45H6.336L5.781,35.902z M7.298,31.859
		l-0.707,1.892H7.99L7.298,31.859z"/>
	<path class="st0" d="M9.839,35.902V30.92h1.06l1.427,3.854l1.427-3.854h1.046v4.982h-0.672l0.048-4.323l-1.6,4.323h-0.506
		l-1.593-4.323l0.048,4.323H9.839z"/>
	<path class="st0" d="M17.934,36c-0.728,0-1.344-0.273-1.829-0.792c-0.464-0.497-0.7-1.114-0.7-1.85
		c0-0.687,0.256-1.318,0.748-1.801c0.485-0.484,1.095-0.736,1.794-0.736c1.15,0,2.133,0.764,2.452,1.99h-1.302
		c-0.263-0.491-0.658-0.75-1.143-0.75c-0.734,0-1.309,0.574-1.309,1.304c0,0.792,0.61,1.401,1.289,1.401
		c0.464,0,0.873-0.252,1.136-0.715h1.309C20.053,35.264,19.118,36,17.934,36z"/>
	<path class="st0" d="M21.596,35.902H20.28l1.891-4.982h0.984l1.891,4.982h-1.33l-0.243-0.722h-1.627L21.596,35.902z M22.662,32.553
		L22.17,34.15h0.977L22.662,32.553z"/>
	<path class="st0" d="M25.14,35.902V30.92h1.635c0.519,0,0.914,0.035,1.247,0.273c0.436,0.308,0.665,0.778,0.665,1.394
		c0,0.806-0.416,1.409-1.115,1.605l1.205,1.71h-1.489l-0.942-1.605v1.605H25.14z M26.581,33.218c0.596,0,0.886-0.154,0.886-0.603
		c0-0.414-0.256-0.581-0.789-0.581h-0.333v1.184C26.345,33.218,26.581,33.218,26.581,33.218z"/>
	<path class="st0" d="M29.322,35.902V30.92h2.674v1.1h-1.468v0.806h1.468v1.107h-1.468v0.869h1.468v1.1
		C31.996,35.902,29.322,35.902,29.322,35.902z"/>
</g>
<g>
	<path class="st0" d="M31.123,17.236c-0.132-0.075-0.278-0.127-0.434-0.148c-0.037-0.006-0.073-0.008-0.111-0.011
		c-0.02-0.001-0.039-0.006-0.059-0.006h-0.056c-0.05-0.001-0.099-0.004-0.148,0h-9.63c-0.681,0-1.234,0.559-1.234,1.248
		s0.553,1.248,1.234,1.248h3.742c0.123,0.001,0.223,0.102,0.223,0.228c0,0.072-0.038,0.132-0.09,0.173
		c-2.051,1.108-4.69,1.78-7.577,1.78c-0.703,0-1.389-0.042-2.058-0.117v2.834c0.583,0.043,1.174,0.068,1.774,0.068
		c4.018,0,7.673-0.994,10.413-2.617l0.001,0.004c0.034-0.018,0.072-0.028,0.113-0.028c0.134,0,0.243,0.11,0.243,0.246
		c0,0.025-0.004,0.048-0.012,0.072l-0.571,1.568c-0.3,0.825,0.117,1.74,0.932,2.044c0.179,0.067,0.363,0.099,0.544,0.099
		c0.64,0,1.242-0.398,1.476-1.042l2.065-5.671C32.184,18.435,31.834,17.593,31.123,17.236z"/>
	<path class="st0" d="M16.983,6.528c2.91,0,5.573,0.678,7.632,1.802c0,0,1.307,0.952,1.929,0.038
		c0.714-1.048-0.711-1.701-0.711-1.701C23.279,5.452,20.12,4.733,16.7,4.734c-0.6,0-1.192,0.024-1.774,0.068v1.844
		C15.594,6.57,16.281,6.528,16.983,6.528z"/>
	<g>
		<path class="st0" d="M2.196,0C0.994,0,0.02,0.986,0.02,2.201V26.22c0,1.216,0.975,2.201,2.176,2.201h12.729v-3.957
			c-7.659-0.566-13.607-4.751-13.607-9.831c0-5.081,5.949-9.265,13.607-9.831V0H2.196z"/>
		<path class="st0" d="M5.172,14.138c0,3.75,4.212,6.864,9.753,7.492V6.646C9.384,7.274,5.172,10.388,5.172,14.138z"/>
	</g>
</g>
</svg>
