<?xml version="1.0" encoding="utf-8"?>
<!-- Generator: Adobe Illustrator 25.0.0, SVG Export Plug-In . SVG Version: 6.00 Build 0)  -->
<svg version="1.1" id="Layer_1" xmlns="http://www.w3.org/2000/svg" xmlns:xlink="http://www.w3.org/1999/xlink" x="0px" y="0px"
	 viewBox="0 0 38 38" style="enable-background:new 0 0 38 38;" xml:space="preserve">
<style type="text/css">
	.st0{fill:#FFFFFF;}
</style>
<g id="BACKGROUND">
</g>
<g id="background_2">
</g>
<g id="Layer_1_1_">
</g>
<g id="free_spins">
</g>
<g id="sttawberry">
</g>
<g id="QUOTES">
</g>
<g id="logo_strip">
</g>
<g id="magnifying">
</g>
<g id="teeth">
</g>
<g id="crops">
</g>
<g id="MICRPHINE">
</g>
<g>
	<path class="st0" d="M25.4,27.8C25.4,27.7,25.4,27.8,25.4,27.8c-0.2,0.2-0.3,0.2-0.5,0c-0.2,0.2-0.3,0.2-0.6,0
		c-0.2,0.2-0.3,0.2-0.6,0.1c0,0-0.1,0-0.1,0c-0.2,0-0.3-0.1-0.3-0.3c0,0,0-0.1,0-0.1c-0.1-0.2-0.1-0.3,0.1-0.4c0,0,0.1,0,0.1-0.1
		c0.1-0.2,0.3-0.3,0.5-0.2c0.1,0,0.1,0,0.2,0c0.1-0.1,0.3-0.2,0.5-0.2c0.1,0,0.3,0.1,0.4,0.2c0.1-0.1,0.2-0.1,0.4-0.1
		c0-1.2-0.1-2.3-0.2-2.7c-0.2-0.7-1.2-1.6-1.4-1.8c0,0-0.1-0.1-0.2-0.1c0-0.1,0-0.2,0-0.3c0-0.1-0.1-0.2-0.2-0.2
		c0-0.1,0-0.2-0.1-0.3c-0.1-0.2-0.3-0.3-0.5-0.3c-0.1,0-0.2,0.1-0.3,0.2c-0.1-0.2-0.2-0.6-0.2-1c0,0,0-0.1,0-0.1l0,0l0,0
		c-0.1-0.4-0.4-0.4-0.8-0.3c-0.1,0-0.2,0.1-0.3,0.2L21,19.8l0,0c-0.1,0.2-0.1,0.3-0.2,0.4c0,0.1,0,0.1,0.1,0.2c0,0,0,0,0,0
		c0,0,0,0.1-0.1,0.1c-0.1,0.1-0.2,0.2-0.3,0.2c0,0,0,0,0,0c-0.2-0.3-0.4-0.3-0.5-0.3c-0.2,0-0.3,0.1-0.4,0.2c0,0,0,0.1-0.1,0.1
		c-0.1,0-0.3,0.1-0.4,0.2c-1.2,0.4-1.7,1.2-2,1.6c-0.4,0.5-1.6,2.4-1.7,2.6c-0.1,0.2-0.5,0.9-0.6,0.3c0-0.1,0-0.2,0-0.3
		c0.1,0,0.2,0,0.2,0l0,0l0,0c0.1-0.1,0.2-0.8,0.2-1l0-0.1l0,0c0.2-0.3,0.3-0.5,0.5-0.6c0.3-0.2,0.6-0.2,0.7-0.7c0.1-0.5-0.6-0.9-1-1
		s-0.3,0-1.6-0.2c0.3-2.2-1.6-2.2-1.9-2.2c-0.3,0-1.3,0.1-0.1,0.6c1.1,0.5,0.5,2,0.3,2.4s-0.1,0.8-0.1,1.1c0,0,0,0,0,0.1
		c-0.1,0-0.2,0-0.2,0l-0.1,0l0,1.2l0.1,0c0,0,0.1,0,0.2,0c0,0.4,0,0.9,0.2,1.5c0.6,1.5,4,2.3,5.7,0c0.3-0.5,0.1-0.5,0.7-1.4
		c-0.3,0.4-0.4,4.2-0.5,4.9c0.7,0,6.1-1,6.6-1C24.9,28.6,25.5,28.4,25.4,27.8C25.5,27.8,25.5,27.8,25.4,27.8z M12.4,24.9
		c-0.3,0-0.5,0-0.5,0l0-1.1c0.1,0,0.3,0,0.5,0L12.4,24.9z M12.9,25c-0.1,0-0.3,0-0.4,0l0-1.1c0.1,0,0.3,0,0.4,0L12.9,25z M13.4,25
		c-0.1,0-0.3,0-0.4,0l0-1.1c0.1,0,0.3,0,0.4,0L13.4,25z M13.8,25c-0.1,0-0.2,0-0.4,0l0-1.1c0.1,0,0.2,0,0.4,0L13.8,25z M14.3,25.1
		c-0.1,0-0.2,0-0.3,0l0-1.1c0.1,0,0.2,0,0.4,0.1L14.3,25.1z M14.7,25.1c-0.1,0-0.2,0-0.3,0l0-1.1c0.1,0,0.2,0,0.3,0.1L14.7,25.1z
		 M14.8,24.1c0.2,0,0.4,0.1,0.5,0.1c0,0.3-0.1,0.9-0.2,0.9c0,0-0.2,0-0.4,0L14.8,24.1z M20.9,20.3c0-0.1,0-0.3,0.1-0.4l1.3,0.2
		c0,0,0,0.4-0.1,0.5c-0.2,0.1-0.6,0.1-0.7-0.2c0-0.1,0-0.2-0.1-0.2c-0.2,0-0.1,0.1-0.2,0.2C21.1,20.5,20.9,20.5,20.9,20.3z
		 M19.7,26.5c0,0,0-0.1,0-0.2c-0.3,0.1-0.4-0.4-0.2-0.6c-0.3-0.1-0.2-0.7,0.1-0.8C19.2,25,19,24.3,19.4,24c-0.3,0-0.3-0.3-0.1-0.4
		c-0.2,0-0.4-0.3-0.2-0.6c-0.2-0.1-0.3-0.7-0.1-0.8c-0.1-0.1-0.3-0.6,0.1-0.7c-0.2-0.3,0.2-0.7,0.5-0.6c-0.1-0.3,0.5-0.5,0.8-0.1
		c0.1,0.1-1.1,2.3-1.1,2.3s1.2-1.2,1.2-1.1c0.1,1,0.3,2.5-0.4,4.5C20.1,26.5,19.9,26.5,19.7,26.5z M23,23.9c0.1,0.2-0.1,0.4-0.2,0.4
		c0.2,0.3-0.2,0.8-0.5,0.7c0,0.5-0.4,0.6-0.6,0.5c0.1,0.3-0.1,0.5-0.2,0.5c0.2,0.2,0.1,0.5-0.2,0.5c-0.1,0-0.3,0-0.5,0
		c0,0,0,0,0-0.1c0.1-1.4,0.7-3,1.3-4c0-0.1,0.3,1.3,0.3,1.3s0.5-1.8,0.3-2.3c0.2-0.4,0.9,0.1,0.8,0.4c0.4,0,0.2,0.7,0,0.8
		c0.3,0.3,0.1,0.8-0.2,0.9C23.5,23.6,23.2,24,23,23.9z"/>
	<g>
		<g>
			<g>
				<path class="st0" d="M20.9,11.8L20.9,11.8c-0.2-0.4-0.3-0.8-0.1-1.1c0,0.1-0.1,0.1-0.2,0.2c-0.2,0.3-0.2,0.7,0.1,1.1
					C20.8,11.9,20.9,11.8,20.9,11.8z"/>
				<path class="st0" d="M22.3,13l-0.2,0.3c0.7,0.4,1.3,0.4,1.6,0.1c0.1-0.1,0.1-0.2,0.2-0.2C23.6,13.5,23,13.4,22.3,13z"/>
			</g>
			<path class="st0" d="M23.6,11.9l0.2-0.1c-0.4-0.6-0.7-0.8-1.2-1c-0.1,0-0.1,0.1-0.2,0.1C22.9,11.2,23.2,11.3,23.6,11.9z"/>
			<ellipse transform="matrix(0.6215 -0.7834 0.7834 0.6215 -0.8195 22.072)" class="st0" cx="22.4" cy="11.9" rx="0.8" ry="1.6"/>
		</g>
		<path class="st0" d="M17.1,13.7h-1v-1.9l-0.9,1.1h-0.1l-0.9-1.1v1.9h-1v-3.3h0.9l1,1.2l1-1.2h0.9L17.1,13.7L17.1,13.7L17.1,13.7z"
			/>
		<path class="st0" d="M19.7,11.4l-0.3,0.9c-0.1-0.1-0.3-0.2-0.4-0.2c-0.1,0-0.2,0-0.3,0.1s-0.2,0.2-0.3,0.5v1h-0.9v-2.4h0.9v0.6
			c0.1-0.1,0.2-0.3,0.3-0.4s0.3-0.2,0.5-0.2c0.1,0,0.2,0,0.3,0C19.6,11.3,19.6,11.4,19.7,11.4z"/>
		<g>
			<path class="st0" d="M13.1,17.4c-0.1,0-0.1,0.1-0.2,0.1c-0.1,0-0.1,0-0.1,0s-0.1,0-0.2,0.1c-0.2,0-0.3,0.1-0.5,0.1
				c-0.2,0-0.3,0-0.5,0c-0.3,0-0.6-0.1-0.9-0.2c-0.3-0.1-0.5-0.3-0.7-0.6S9.8,16.4,9.8,16c0-0.2,0-0.5,0.1-0.7
				c0.1-0.2,0.2-0.4,0.4-0.6c0.2-0.1,0.3-0.2,0.5-0.3c0.2-0.1,0.3-0.1,0.5-0.1c0.1,0,0.3,0,0.5,0c0.3,0,0.5,0,0.7,0.1
				c0.2,0,0.4,0.1,0.6,0.2v0.8c-0.2-0.1-0.3-0.2-0.5-0.2c-0.2-0.1-0.4-0.1-0.6-0.1c-0.3,0-0.5,0.1-0.7,0.2c-0.2,0.1-0.3,0.2-0.4,0.4
				c-0.1,0.1-0.1,0.3-0.1,0.4c0,0.2,0,0.3,0.1,0.5s0.2,0.3,0.4,0.3c0.2,0.1,0.3,0.1,0.6,0.1c0.1,0,0.3,0,0.4-0.1v-0.4h-0.5v-0.7h1.3
				L13.1,17.4L13.1,17.4L13.1,17.4z"/>
			<path class="st0" d="M16.2,17.5c-0.1,0.1-0.2,0.1-0.3,0.1c-0.1,0-0.2,0-0.4,0c-0.1,0-0.2,0-0.3-0.1c-0.1-0.1-0.1-0.1-0.1-0.2
				c-0.1,0.1-0.2,0.1-0.3,0.2c-0.1,0-0.3,0.1-0.4,0.1c-0.2,0-0.3,0-0.4-0.1s-0.2-0.1-0.2-0.2c0-0.1-0.1-0.2-0.1-0.3
				c0-0.1,0-0.3,0.1-0.4c0.1-0.1,0.2-0.2,0.3-0.2s0.3-0.1,0.5-0.2c0.1,0,0.2-0.1,0.3-0.1c0.1,0,0.1,0,0.1,0c0,0,0.1,0,0.1,0
				c0-0.1,0-0.2-0.1-0.3c0-0.1-0.2-0.1-0.3-0.1c-0.2,0-0.4,0-0.5,0.1s-0.3,0.2-0.4,0.3v-0.7c0.1-0.1,0.2-0.1,0.3-0.2
				c0.1,0,0.3-0.1,0.4-0.1s0.3,0,0.4,0c0.4,0,0.6,0.1,0.8,0.2c0.2,0.1,0.3,0.3,0.3,0.6v0.9c0,0.1,0,0.2,0,0.2s0,0.1,0.1,0.1
				c0.1,0,0.1,0,0.2-0.1L16.2,17.5L16.2,17.5L16.2,17.5z M15,17.1v-0.6c-0.2,0.1-0.4,0.2-0.4,0.2c-0.1,0.1-0.1,0.2-0.1,0.3
				c0,0.1,0,0.1,0.1,0.2s0.1,0.1,0.2,0.1c0.1,0,0.1,0,0.2,0C14.9,17.1,14.9,17.1,15,17.1z"/>
			<path class="st0" d="M20.9,17.6h-0.9v-1.3c0-0.2,0-0.3-0.1-0.4c-0.1-0.1-0.1-0.1-0.3-0.1c-0.1,0-0.2,0-0.3,0.1
				c-0.1,0.1-0.2,0.2-0.2,0.3v1.4h-0.9v-1.3c0-0.2,0-0.3-0.1-0.4s-0.1-0.1-0.3-0.1c-0.1,0-0.1,0-0.2,0s-0.1,0.1-0.1,0.1
				c0,0-0.1,0.1-0.1,0.1s-0.1,0.1-0.1,0.1v1.4h-0.9v-2.4h0.9v0.3c0.1-0.1,0.3-0.2,0.4-0.3c0.1-0.1,0.3-0.1,0.5-0.1
				c0.1,0,0.2,0,0.2,0c0.1,0,0.2,0,0.2,0.1s0.1,0.1,0.2,0.1c0.1,0.1,0.1,0.1,0.1,0.2c0.1-0.2,0.3-0.3,0.4-0.4
				c0.2-0.1,0.3-0.1,0.5-0.1c0.2,0,0.4,0,0.5,0.1c0.1,0.1,0.2,0.2,0.3,0.3s0.1,0.3,0.1,0.5L20.9,17.6L20.9,17.6z"/>
			<path class="st0" d="M24,16.4c0,0.3-0.1,0.5-0.2,0.7c-0.1,0.2-0.2,0.3-0.4,0.4c-0.2,0.1-0.3,0.1-0.5,0.1c-0.1,0-0.2,0-0.3,0
				s-0.2-0.1-0.2-0.1c-0.1,0-0.1-0.1-0.2-0.1v0.2h-0.9v-3.3h0.9v1c0.1-0.1,0.2-0.1,0.3-0.1c0.1,0,0.2-0.1,0.4-0.1
				c0.2,0,0.4,0,0.5,0.1c0.2,0.1,0.3,0.2,0.4,0.3c0.1,0.1,0.2,0.3,0.2,0.4C24,16.1,24,16.3,24,16.4z M23.1,16.4c0-0.2,0-0.4-0.1-0.5
				c-0.1-0.1-0.2-0.2-0.3-0.2c-0.1,0-0.3,0.1-0.4,0.2v0.9c0.1,0.1,0.3,0.2,0.4,0.2c0.1,0,0.2,0,0.3-0.1
				C23.1,16.8,23.1,16.7,23.1,16.4z"/>
			<path class="st0" d="M25.2,17.6h-0.9v-3.3h0.9V17.6L25.2,17.6z"/>
			<path class="st0" d="M28.2,16.6h-1.7c0,0.1,0.1,0.3,0.2,0.4s0.3,0.1,0.4,0.1c0.3,0,0.6-0.1,1-0.2v0.5c-0.1,0.1-0.3,0.1-0.5,0.2
				c-0.2,0.1-0.4,0.1-0.7,0.1c-0.3,0-0.6-0.1-0.8-0.2c-0.2-0.1-0.4-0.3-0.5-0.4c-0.1-0.2-0.2-0.4-0.2-0.6s0.1-0.4,0.2-0.6
				c0.1-0.2,0.3-0.3,0.5-0.4s0.5-0.2,0.8-0.2c0.2,0,0.4,0,0.6,0.1c0.2,0.1,0.3,0.2,0.5,0.4c0.1,0.2,0.2,0.4,0.2,0.7L28.2,16.6
				L28.2,16.6L28.2,16.6z M27.4,16.2c0-0.2,0-0.3-0.1-0.4c-0.1-0.1-0.2-0.1-0.3-0.1s-0.3,0-0.3,0.1c-0.1,0.1-0.1,0.2-0.1,0.4H27.4z"
				/>
		</g>
	</g>
	<g>
		<path class="st0" d="M18.9,30.7c-6.6,0-12-5.3-12-11.8S12.3,7,18.9,7s12,5.3,12,11.8S25.5,30.7,18.9,30.7z M18.9,8
			c-6,0-11,4.9-11,10.8s4.9,10.8,11,10.8s11-4.9,11-10.8S25,8,18.9,8z"/>
	</g>
	<g>
		<path class="st0" d="M4.6,18.4L0,17.5l0.3-1.3l2-0.7L0.7,14L1,12.6l4.6,0.9l-0.3,1.3l-2.6-0.5l1.6,1.5l0,0l-2,0.8l2.6,0.5
			L4.6,18.4z"/>
		<path class="st0" d="M5.8,13.1l-4-2.4L3,8.9c0.4-0.6,0.8-0.9,1.2-1c0.4-0.1,0.8,0,1.1,0.2l0,0c0.6,0.4,0.8,0.9,0.7,1.6l2-0.1
			l-0.8,1.3l-1.7,0.1l-0.3,0.5L6.5,12L5.8,13.1z M4.4,10.8l0.4-0.7C5,9.9,5,9.7,5,9.6c0-0.2-0.1-0.3-0.3-0.4l0,0
			C4.6,9.1,4.4,9.1,4.3,9.1C4.1,9.2,4,9.3,3.9,9.5l-0.4,0.7L4.4,10.8z"/>
		<path class="st0" d="M10.1,7.9C9.5,8.4,8.9,8.6,8.2,8.6C7.6,8.5,7,8.3,6.6,7.7l0,0C6.1,7.2,5.9,6.6,6,6C6,5.3,6.3,4.7,6.9,4.3
			c0.6-0.5,1.2-0.7,1.9-0.7l0,1.2C8.3,4.8,8,4.9,7.6,5.1C7.4,5.4,7.3,5.6,7.2,6c0,0.3,0.1,0.6,0.3,0.9l0,0c0.2,0.3,0.5,0.4,0.9,0.5
			c0.3,0,0.7-0.1,0.9-0.3c0.2-0.2,0.4-0.4,0.4-0.6L9.5,6L8.8,6.6L8.1,5.9l1.6-1.4l1.4,1.6C11,6.8,10.7,7.4,10.1,7.9z"/>
		<path class="st0" d="M15.4,5.2c-0.8,0.2-1.6,0.2-2.3-0.2l0.5-1c0.6,0.2,1.1,0.3,1.6,0.1c0.3-0.1,0.5-0.2,0.4-0.4l0,0
			c0-0.1-0.1-0.2-0.2-0.2c-0.1,0-0.3,0-0.7,0c-0.3,0-0.5,0-0.7,0s-0.4,0-0.6-0.1c-0.2-0.1-0.4-0.2-0.5-0.3c-0.1-0.1-0.2-0.3-0.3-0.5
			l0,0c-0.1-0.4-0.1-0.8,0.2-1.2s0.6-0.6,1.2-0.7c0.7-0.2,1.4-0.2,2,0.1l-0.4,1c-0.5-0.2-0.9-0.2-1.4-0.1c-0.3,0.1-0.4,0.2-0.4,0.4
			l0,0c0,0.1,0.1,0.2,0.2,0.2s0.4,0,0.7,0c0.6,0,1.1,0,1.4,0.2c0.3,0.1,0.6,0.4,0.7,0.8l0,0c0.1,0.5,0.1,0.9-0.2,1.2
			C16.4,4.8,16,5.1,15.4,5.2z"/>
		<path class="st0" d="M17.5,4.6L17.7,0l3.8,0.1l0,1.1l-2.5-0.1l0,0.7l2.2,0.1l0,1l-2.2-0.1l0,0.7l2.5,0.1l0,1.1L17.5,4.6z"/>
		<path class="st0" d="M21.3,4.6l3.5-3.7L26,1.3l0.3,5.1L25,5.9l0-0.9l-1.7-0.6l-0.6,0.7L21.3,4.6z M23.9,3.6l1,0.3l0-1.4L23.9,3.6z
			"/>
		<path class="st0" d="M26.3,6.6l2.8-3.7l1,0.8L28,6.4l1.8,1.4l-0.7,0.9L26.3,6.6z"/>
		<path class="st0" d="M33,13.6c-0.6-0.2-1.1-0.6-1.5-1.3s-0.4-1.3-0.2-1.9C31.6,9.8,32,9.3,32.6,9l0,0c0.6-0.3,1.2-0.4,1.9-0.1
			c0.6,0.2,1.1,0.6,1.5,1.3c0.3,0.6,0.4,1.3,0.2,1.9c-0.2,0.6-0.6,1.1-1.2,1.4l0,0C34.3,13.8,33.7,13.8,33,13.6z M32.6,10.9
			c-0.1,0.3-0.1,0.6,0.1,0.9c0.2,0.3,0.4,0.5,0.7,0.6c0.3,0.1,0.6,0,0.9-0.1l0,0c0.3-0.2,0.5-0.4,0.6-0.7s0.1-0.6-0.1-0.9
			c-0.2-0.3-0.4-0.5-0.7-0.6c-0.3-0.1-0.6-0.1-0.9,0.1l0,0C32.9,10.4,32.7,10.6,32.6,10.9z"/>
		<path class="st0" d="M32.8,14.9l4.6-0.7l0.6,3.7L36.9,18l-0.4-2.4l-0.8,0.1l0.3,2.2L35,18.1l-0.3-2.2L33,16.2L32.8,14.9z"/>
	</g>
	<g>
		<path class="st0" d="M1.3,25.7l4.9-0.4l0.6,1.1l-3.2,3.8L3,29l0.6-0.7l-0.8-1.5l-0.9,0.1L1.3,25.7z M3.8,26.7l0.5,0.9l0.9-1
			L3.8,26.7z"/>
		<path class="st0" d="M4.8,31.5l3.2-3.2l1.4,1.3C9.7,30,10,30.4,10,30.8c0,0.4-0.1,0.8-0.4,1.2l0,0c-0.4,0.4-0.8,0.5-1.2,0.5
			S7.4,32.3,7,31.9l-0.5-0.4l-0.9,0.9L4.8,31.5z M7.3,30.7l0.4,0.4c0.2,0.2,0.3,0.2,0.5,0.2s0.3,0,0.4-0.2l0,0
			c0.1-0.1,0.2-0.3,0.2-0.4s-0.1-0.3-0.3-0.5l-0.4-0.4L7.3,30.7z"/>
		<path class="st0" d="M9,35.1l2.1-4l1.7,0.9c0.5,0.3,0.9,0.6,1,1c0.2,0.4,0.1,0.8-0.1,1.3l0,0c-0.2,0.5-0.6,0.7-1,0.8
			s-0.9,0-1.4-0.3l-0.6-0.3l-0.6,1.1L9,35.1z M11.1,33.6l0.5,0.3C11.8,34,12,34,12.2,34c0.2,0,0.3-0.1,0.4-0.3l0,0
			c0.1-0.2,0.1-0.3,0-0.5c-0.1-0.1-0.2-0.3-0.4-0.4l-0.5-0.3L11.1,33.6z"/>
		<path class="st0" d="M14.1,37.3l0.7-4.4l2.1,0.3c0.7,0.1,1.1,0.3,1.4,0.7c0.2,0.3,0.3,0.7,0.2,1.1l0,0c-0.1,0.7-0.5,1.1-1.1,1.2
			l0.8,1.7l-1.4-0.2l-0.7-1.5l-0.5-0.1l-0.2,1.3L14.1,37.3z M15.7,35.2l0.8,0.1c0.2,0,0.4,0,0.5-0.1s0.2-0.2,0.2-0.4l0,0
			c0-0.2,0-0.3-0.1-0.4c-0.1-0.1-0.3-0.2-0.5-0.2l-0.8-0.1L15.7,35.2z"/>
		<path class="st0" d="M23.9,36.7c-0.4,0.5-0.9,0.9-1.6,1c-0.7,0.1-1.3,0-1.8-0.4s-0.9-0.9-1-1.5l0,0c-0.1-0.6,0-1.2,0.4-1.8
			c0.4-0.5,0.9-0.9,1.6-1s1.3,0,1.8,0.4c0.5,0.4,0.9,0.9,1,1.5l0,0C24.4,35.6,24.3,36.2,23.9,36.7z M21.3,36.4
			c0.3,0.2,0.6,0.3,0.9,0.2s0.6-0.2,0.7-0.5c0.2-0.3,0.2-0.6,0.2-0.9l0,0c-0.1-0.3-0.2-0.6-0.5-0.8c-0.3-0.2-0.6-0.3-0.9-0.2
			s-0.6,0.2-0.8,0.5c-0.2,0.3-0.2,0.6-0.2,0.9l0,0C20.8,35.9,21,36.2,21.3,36.4z"/>
		<path class="st0" d="M27.6,35.8l-3.8-3l1.2-0.7l2.3,2l-0.5-3l1.2-0.7l0.7,4.8L27.6,35.8z"/>
		<path class="st0" d="M30.8,33.9l-2-4.5l0.8-0.9l4.6,1.7l-0.9,1l-0.8-0.3l-1.2,1.3l0.4,0.8L30.8,33.9z M30.8,31.2l0.7-0.7L30.3,30
			L30.8,31.2z"/>
		<path class="st0" d="M35.1,28.8L31,26.9l0.5-1.1l3.1,1.4l0.9-2l1,0.5L35.1,28.8z"/>
	</g>
</g>
</svg>
