<?xml version="1.0" encoding="UTF-8"?>
<!DOCTYPE svg PUBLIC "-//W3C//DTD SVG 1.1//EN" "http://www.w3.org/Graphics/SVG/1.1/DTD/svg11.dtd">
<!-- Creator: CorelDRAW 2018 (64-Bit) -->
<svg xmlns="http://www.w3.org/2000/svg" xml:space="preserve" width="127.76mm" height="43.8922mm" version="1.1" style="shape-rendering:geometricPrecision; text-rendering:geometricPrecision; image-rendering:optimizeQuality; fill-rule:evenodd; clip-rule:evenodd"
viewBox="0 0 2886232 991569"
 xmlns:xlink="http://www.w3.org/1999/xlink">
 <defs>
  <style type="text/css">
   <![CDATA[
    .fil1 {fill:#6CA30F;fill-rule:nonzero}
    .fil2 {fill:white;fill-rule:nonzero}
    .fil0 {fill:white;fill-rule:nonzero}
   ]]>
  </style>
 </defs>
 <g id="Слой_x0020_1">
  <metadata id="CorelCorpID_0Corel-Layer"/>
  <g id="_2191262320992">
   <polygon class="fil0" points="2565885,794234 2600354,794234 2600354,987435 2568826,987435 2442215,834227 2442215,987435 2407797,987435 2407797,794234 2452717,794234 2565885,930824 "/>
   <path class="fil0" d="M1679797 991569c-31688,0 -58084,-9793 -79179,-29386 -21095,-19629 -31673,-43400 -31673,-71383 0,-27952 10577,-51711 31673,-71347 21095,-19600 47491,-29418 79179,-29418 21606,0 40763,4674 57465,13986 16751,9253 30164,21663 40255,37113l-32113 17370c-14526,-22071 -36408,-33096 -65607,-33096 -21559,0 -39229,6188 -52969,18622 -13695,12421 -20544,28024 -20544,46770 0,18789 6850,34365 20544,46804 13740,12409 31411,18644 52969,18644 29199,0 51081,-11045 65607,-33161l32113 17406c-10091,15484 -23504,27857 -40255,37126 -16702,9317 -35859,13950 -57465,13950z"/>
   <path class="fil0" d="M1868245 914839l81129 0 -40555 -95248 -40573 95248zm95119 32014l-109117 0 -17189 40582 -40576 0 86099 -193201 52492 0 86074 193201 -40571 0 -17212 -40582z"/>
   <path class="fil0" d="M2141747 958982c17689,0 31200,-3005 40549,-9077 2914,-2042 5458,-4699 7588,-8038 2173,-3316 3212,-6542 3212,-9662 0,-6612 -2474,-11892 -7475,-15859 -4945,-3958 -11424,-6673 -19516,-8155 -8054,-1459 -16934,-2720 -26558,-3725 -9626,-996 -19275,-2365 -28894,-4143 -9603,-1740 -18484,-4290 -26533,-7577 -8101,-3305 -14576,-8605 -19523,-15881 -4950,-7277 -7475,-16421 -7475,-27455 0,-19882 9235,-35335 27740,-46409 14736,-8623 32755,-12963 53990,-12963 20201,0 37128,3167 50706,9414 13647,6285 25867,15005 36762,26233l-31487 17106c-7957,-7554 -16144,-12802 -24475,-15753 -8372,-2914 -18920,-4417 -31505,-4417 -14250,0 -25584,2300 -34144,6906 -7586,4615 -11424,10302 -11424,17119 0,5885 2474,10478 7491,13796 4956,3334 11447,5598 19498,6782 8121,1175 16912,2191 26583,3016 9603,845 19250,2214 28894,4161 9597,1909 18482,4692 26533,8248 8051,3608 14578,9344 19498,17291 5045,7889 7475,17761 7475,29517 0,9233 -2749,18276 -8280,27209 -5600,8903 -13184,16130 -22948,21635 -15732,8851 -34490,13268 -56281,13268 -41251,0 -73310,-13333 -96308,-40029l31833 -17928c8560,8847 17650,15267 27247,19311 9646,4066 22069,6059 37228,6059z"/>
   <polygon class="fil0" points="2333380,987433 2298186,987433 2298186,794232 2333380,794232 "/>
   <path class="fil0" d="M2722266 937730c13832,12326 31503,18518 53109,18518 21541,0 39259,-6235 52928,-18644 13699,-12439 20594,-28015 20594,-46804 0,-18746 -6895,-34350 -20594,-46770 -13670,-12434 -31388,-18622 -52928,-18622 -21606,0 -39229,6188 -52974,18622 -13668,12421 -20587,28024 -20587,46770 0,18789 6870,34424 20452,46931zm132180 24550c-21053,19539 -47376,29289 -79071,29289 -31738,0 -58133,-9793 -79229,-29386 -21095,-19629 -31623,-43400 -31623,-71383 0,-27952 10527,-51711 31623,-71347 21095,-19600 47491,-29418 79229,-29418 31695,0 58113,9818 79188,29418 21123,19636 31668,43395 31668,71347 0,27983 -10595,51797 -31786,71480z"/>
   <path class="fil1" d="M844886 422438c0,233309 -189109,422438 -422454,422438 -233270,0 -422432,-189130 -422432,-422438 0,-233302 189161,-422438 422432,-422438 233345,0 422454,189136 422454,422438z"/>
   <polygon class="fil2" points="652955,280998 652955,189570 297329,189570 297329,655297 390047,655297 390047,475279 614109,475279 614109,383842 390047,383842 390047,280998 "/>
   <path class="fil0" d="M1022731 280985l140189 0c31896,0 54591,3861 67384,11415 17605,10548 26147,26822 26147,49712 0,22937 -8542,39189 -26147,49714 -12750,7584 -35436,11449 -67384,11449l-140189 0 0 -122290zm206482 201982c35766,-7618 64594,-23160 85900,-46275 23409,-25483 35319,-57286 35319,-94580 0,-25842 -5670,-50306 -16842,-72707 -11239,-22516 -27941,-40567 -49619,-53692 -28892,-17363 -69603,-26142 -121052,-26142l-232855 0 0 465716 92666 0 0 -160597 102179 0 126279 160597 115668 0 -137645 -172320z"/>
   <polygon class="fil0" points="1564552,565148 1564552,461015 1795073,461015 1795073,370890 1564552,370890 1564552,279686 1833913,279686 1833913,189570 1471840,189570 1471840,655286 1840440,655286 1840440,565148 "/>
   <path class="fil0" d="M2326691 440611c-11585,-19555 -27114,-34004 -46083,-42900 -18229,-8591 -38533,-15278 -60282,-19900 -21534,-4572 -43352,-7882 -64863,-9838 -21190,-1907 -40849,-4265 -58481,-7055 -16936,-2659 -30627,-7643 -40759,-14804 -9348,-6592 -13930,-15518 -13930,-27306 0,-13814 7313,-25252 22121,-34740 17998,-10198 42424,-15382 72727,-15382 27159,0 49965,3371 67757,9974 17626,6581 35188,18527 52165,35500l3355 3341 80824 -46359 -5302 -5747c-24586,-26800 -52648,-47977 -83456,-62925 -30909,-14991 -69727,-22609 -115343,-22609 -48067,0 -89481,10536 -123157,31381 -42711,27005 -64409,65369 -64409,114042 0,26987 5880,49795 17540,67807 11607,18066 27132,31365 46106,39584 18294,7918 38561,14043 60259,18199 21278,4105 43002,7394 64561,9775 21145,2370 40833,5282 58436,8675 16817,3271 30464,9237 40553,17752 9622,8133 14339,18751 14339,32490 0,6118 -2126,12655 -6242,19421 -4301,7069 -9439,12780 -15037,16885 -19571,13462 -48677,20291 -86519,20291 -32667,0 -59591,-4620 -80013,-13717 -20476,-9070 -40160,-23827 -58463,-43865l-3423 -3732 -81104 48392 4489 5575c51934,63851 125448,96186 218514,96186 49300,0 92395,-10758 128204,-31969 22372,-13430 40160,-31252 53021,-52999 12771,-21812 19288,-44346 19288,-66944 0,-28639 -5871,-53010 -17393,-72479z"/>
   <polygon class="fil0" points="2790877,189570 2790877,365694 2548187,365694 2548187,189570 2452909,189570 2452909,655286 2548187,655286 2548187,461017 2790877,461017 2790877,655286 2886232,655286 2886232,189570 "/>
  </g>
 </g>
</svg>
