<svg xmlns="http://www.w3.org/2000/svg" width="1588" height="224" viewBox="0 0 1588 224">
    <g fill="none" fill-rule="evenodd">
        <path fill="#BED753" d="M0 153.927C142.397 51.31 292.97 0 451.719 0c293.29 0 508.297 183.025 749.722 183.025 151.898 0 280.75-57.631 386.559-172.894V224H0v-70.073z"/>
        <path fill="#383D41" d="M0 153.884C143.266 62.59 294.274 16.941 453.023 16.941c293.29 0 507.205 174.004 748.63 174.004 151.898 0 280.68-60.315 386.347-180.945v214H0v-70.116z"/>
        <path fill="#272A2D" d="M0 153.884C143.405 73.555 294.482 33.391 453.231 33.391c293.29 0 506.997 157.554 748.423 157.554 151.897 0 280.68-60.315 386.346-180.945v214H0v-70.116z"/>
    </g>
</svg>
