<?xml version="1.0" encoding="utf-8"?>
<!-- Generator: Adobe Illustrator 21.0.1, SVG Export Plug-In . SVG Version: 6.00 Build 0)  -->
<svg version="1.1" id="Слой_1" xmlns="http://www.w3.org/2000/svg" xmlns:xlink="http://www.w3.org/1999/xlink" x="0px" y="0px"
	 width="334px" height="16px" viewBox="0 0 334 16" style="enable-background:new 0 0 334 16;" xml:space="preserve">
<style type="text/css">
	.st0{fill:none;stroke:#97A94C;stroke-width:3;stroke-linecap:square;}
</style>
<path class="st0" d="M334,14c-13.8,0-13.8-12-27.7-12c-15.8,0-15.8,12-29.7,12C262.8,14,262.8,2,249,2s-13.8,12-27.7,12
	c-13.8,0-13.8-12-27.7-12c-13.8,0-13.8,12-27.7,12c-13.8,0-13.8-12-27.7-12c-13.8,0-13.8,12-27.7,12C96.8,14,96.8,2,83,2
	S69.2,14,55.3,14C41.5,14,41.5,2,27.7,2C13.8,2,13.8,14,0,14"/>
</svg>
