<?xml version="1.0" encoding="utf-8"?>
<!-- Generator: Adobe Illustrator 25.0.0, SVG Export Plug-In . SVG Version: 6.00 Build 0)  -->
<svg version="1.1" id="Слой_1" xmlns="http://www.w3.org/2000/svg" xmlns:xlink="http://www.w3.org/1999/xlink" x="0px" y="0px"
	 viewBox="0 0 736.1 218.1" style="enable-background:new 0 0 736.1 218.1;" xml:space="preserve">
<style type="text/css">
	.st0{fill:#95A954;}
	.st1{fill:#95A954;filter:url(#Adobe_OpacityMaskFilter);}
	.st2{mask:url(#mask0_1_);}
	.st3{fill-rule:evenodd;clip-rule:evenodd;fill:#E8F0C1;fill-opacity:0.2;}
	.st4{fill:#FFFFFF;}
</style>
<path class="st0" d="M36,0h664.1c19.9,0,36,16.1,36,36v146.1c0,19.9-16.1,36-36,36H36c-19.9,0-36-16.1-36-36V36C0,16.1,16.1,0,36,0z
	"/>
<defs>
	<filter id="Adobe_OpacityMaskFilter" filterUnits="userSpaceOnUse" x="-0.9" y="-7.9" width="735.2" height="224">
		<feColorMatrix  type="matrix" values="1 0 0 0 0  0 1 0 0 0  0 0 1 0 0  0 0 0 1 0"/>
	</filter>
</defs>
<mask maskUnits="userSpaceOnUse" x="-0.9" y="-7.9" width="735.2" height="224" id="mask0_1_">
	<path class="st1" d="M4.1,5.3h726.1c2.8,0,5,2.2,5,5v208.1c0,2.8-2.2,5-5,5H4.1c-2.8,0-5-2.2-5-5V10.3C-0.9,7.5,1.3,5.3,4.1,5.3z"
		/>
</mask>
<g class="st2">
	<path class="st3" d="M-0.9,49.5c0,0,114.5-57.4,207-57.4c213,0,181.5,216.7,351.4,216.7c112.5,0,176.8-81.5,176.8-81.5v88.8H-0.9
		V49.5z"/>
</g>
<path class="st4" d="M248.3,79c-0.5,0-0.9-0.1-1.2-0.4c-0.3-0.3-0.4-0.7-0.4-1.2v-25c0-0.5,0.1-0.9,0.4-1.2c0.3-0.3,0.7-0.4,1.2-0.4
	h7.8c4.5,0,8,1.2,10.4,3.7c2.5,2.4,3.7,5.9,3.7,10.4c0,4.5-1.2,8-3.7,10.4c-2.5,2.5-6,3.7-10.4,3.7H248.3z M255.9,76.2
	c7.3,0,11-3.8,11-11.3c0-7.5-3.7-11.3-11-11.3h-6v22.6H255.9z M289,79.3c-2.6,0-4.9-0.6-6.8-1.8c-1.9-1.2-3.4-2.8-4.4-5
	c-1-2.2-1.6-4.7-1.6-7.6c0-3,0.5-5.5,1.5-7.7c1-2.2,2.5-3.9,4.4-5c1.9-1.2,4.2-1.8,6.9-1.8c2.6,0,4.9,0.6,6.8,1.8
	c1.9,1.1,3.4,2.8,4.4,5c1,2.2,1.6,4.7,1.6,7.6c0,2.9-0.5,5.5-1.6,7.7c-1,2.2-2.5,3.8-4.5,5C293.8,78.7,291.6,79.3,289,79.3z
	 M289,76.5c3,0,5.3-1,7-3c1.7-2,2.5-4.9,2.5-8.6c0-3.7-0.8-6.6-2.5-8.6c-1.7-2-4-3-7-3c-3,0-5.3,1-7,3c-1.7,2-2.5,4.9-2.5,8.6
	c0,3.7,0.8,6.6,2.5,8.6C283.6,75.5,286,76.5,289,76.5z M344.1,51.6c0.1-0.3,0.3-0.6,0.6-0.8c0.3-0.2,0.6-0.3,0.9-0.3
	c0.4,0,0.8,0.1,1.1,0.4c0.3,0.2,0.5,0.6,0.5,1c0,0.2,0,0.4-0.1,0.6l-9,25.5c-0.1,0.4-0.4,0.7-0.7,0.9c-0.3,0.2-0.7,0.3-1.1,0.3
	c-0.4,0-0.7-0.1-1-0.3c-0.3-0.2-0.5-0.5-0.7-0.9l-7.8-22.2l-7.9,22.2c-0.1,0.4-0.4,0.7-0.7,0.9c-0.3,0.2-0.7,0.3-1,0.3
	c-0.4,0-0.7-0.1-1-0.3c-0.3-0.2-0.5-0.5-0.7-0.9l-9.1-25.5c-0.1-0.2-0.1-0.4-0.1-0.6c0-0.4,0.2-0.8,0.5-1c0.3-0.3,0.7-0.4,1.2-0.4
	c0.3,0,0.6,0.1,0.9,0.3c0.3,0.2,0.5,0.4,0.6,0.8l7.9,22.7l8-22.5c0.1-0.4,0.3-0.7,0.6-0.9c0.3-0.2,0.6-0.3,1-0.3
	c0.3,0,0.7,0.1,1,0.3c0.3,0.2,0.5,0.5,0.6,0.9l7.9,22.5L344.1,51.6z M374.2,50.6c0.5,0,0.9,0.2,1.1,0.5c0.3,0.3,0.4,0.7,0.4,1.2
	v25.2c0,0.5-0.1,0.9-0.4,1.2c-0.3,0.3-0.7,0.4-1.2,0.4c-0.5,0-0.9-0.2-1.3-0.7l-16.6-22.2v21.2c0,0.5-0.1,0.9-0.4,1.2
	c-0.3,0.3-0.6,0.4-1.1,0.4c-0.5,0-0.9-0.1-1.1-0.4c-0.3-0.3-0.4-0.7-0.4-1.2V52.3c0-0.5,0.1-0.9,0.4-1.2c0.3-0.3,0.7-0.5,1.2-0.5
	c0.5,0,1,0.2,1.4,0.7l16.6,22.2V52.3c0-0.5,0.1-0.9,0.4-1.2C373.3,50.8,373.7,50.6,374.2,50.6z M385.3,79c-0.5,0-0.8-0.1-1.2-0.4
	c-0.3-0.3-0.4-0.7-0.4-1.1V52.3c0-0.5,0.1-0.9,0.4-1.2c0.3-0.3,0.7-0.5,1.2-0.5c0.5,0,0.9,0.2,1.2,0.5c0.3,0.3,0.4,0.7,0.4,1.2v23.9
	h12.9c0.5,0,0.9,0.1,1.1,0.4c0.3,0.2,0.4,0.6,0.4,1s-0.1,0.8-0.4,1c-0.3,0.2-0.6,0.4-1.1,0.4H385.3z M416.6,79.3
	c-2.6,0-4.9-0.6-6.8-1.8c-1.9-1.2-3.4-2.8-4.4-5c-1-2.2-1.6-4.7-1.6-7.6c0-3,0.5-5.5,1.5-7.7c1-2.2,2.5-3.9,4.4-5
	c1.9-1.2,4.2-1.8,6.9-1.8c2.6,0,4.9,0.6,6.8,1.8c1.9,1.1,3.4,2.8,4.4,5c1,2.2,1.6,4.7,1.6,7.6c0,2.9-0.5,5.5-1.6,7.7
	c-1,2.2-2.5,3.8-4.5,5C421.5,78.7,419.2,79.3,416.6,79.3z M416.6,76.5c3,0,5.3-1,7-3c1.7-2,2.5-4.9,2.5-8.6c0-3.7-0.8-6.6-2.5-8.6
	c-1.7-2-4-3-7-3c-3,0-5.3,1-7,3c-1.7,2-2.5,4.9-2.5,8.6c0,3.7,0.8,6.6,2.5,8.6C411.3,75.5,413.6,76.5,416.6,76.5z M460,77.1
	c0.1,0.2,0.2,0.4,0.2,0.7c0,0.4-0.2,0.7-0.5,1c-0.3,0.3-0.7,0.4-1.1,0.4c-0.7,0-1.1-0.3-1.4-1l-2.8-6.5h-15.1l-2.9,6.5
	c-0.3,0.6-0.7,1-1.4,1c-0.4,0-0.8-0.1-1.1-0.4c-0.3-0.3-0.5-0.6-0.5-1c0-0.2,0.1-0.4,0.2-0.6L445,51.7c0.2-0.4,0.4-0.7,0.7-0.8
	c0.3-0.2,0.7-0.3,1-0.3c0.4,0,0.8,0.1,1.1,0.3c0.3,0.2,0.6,0.5,0.7,0.8L460,77.1z M440.5,69h12.7l-6.4-14.4L440.5,69z M467.5,79
	c-0.5,0-0.9-0.1-1.2-0.4c-0.3-0.3-0.4-0.7-0.4-1.2v-25c0-0.5,0.1-0.9,0.4-1.2c0.3-0.3,0.7-0.4,1.2-0.4h7.8c4.5,0,8,1.2,10.4,3.7
	c2.5,2.4,3.7,5.9,3.7,10.4c0,4.5-1.2,8-3.7,10.4c-2.5,2.5-6,3.7-10.4,3.7H467.5z M475.1,76.2c7.3,0,11-3.8,11-11.3
	c0-7.5-3.7-11.3-11-11.3h-6v22.6H475.1z M509.3,79.2c-0.5,0-0.9-0.1-1.2-0.4c-0.3-0.3-0.4-0.7-0.4-1.2V52.4c0-0.5,0.1-0.9,0.4-1.2
	c0.3-0.3,0.7-0.4,1.2-0.4h14.6c0.5,0,0.9,0.1,1.1,0.4c0.3,0.2,0.4,0.6,0.4,1c0,0.4-0.1,0.8-0.4,1c-0.3,0.2-0.6,0.4-1.1,0.4h-13v9.7
	h12.2c0.5,0,0.9,0.1,1.1,0.4c0.3,0.2,0.4,0.6,0.4,1c0,0.4-0.1,0.8-0.4,1c-0.3,0.2-0.6,0.4-1.1,0.4h-12.2v11.5c0,0.5-0.1,0.9-0.4,1.2
	C510.2,79.1,509.8,79.2,509.3,79.2z M542.1,79.3c-2.6,0-4.9-0.6-6.8-1.8c-1.9-1.2-3.4-2.8-4.4-5c-1-2.2-1.6-4.7-1.6-7.6
	c0-3,0.5-5.5,1.5-7.7c1-2.2,2.5-3.9,4.4-5c1.9-1.2,4.2-1.8,6.9-1.8c2.6,0,4.9,0.6,6.8,1.8c1.9,1.1,3.4,2.8,4.4,5
	c1,2.2,1.6,4.7,1.6,7.6c0,2.9-0.5,5.5-1.6,7.7c-1,2.2-2.5,3.8-4.5,5C547,78.7,544.7,79.3,542.1,79.3z M542.1,76.5c3,0,5.3-1,7-3
	c1.7-2,2.5-4.9,2.5-8.6c0-3.7-0.8-6.6-2.5-8.6c-1.7-2-4-3-7-3c-3,0-5.3,1-7,3c-1.7,2-2.5,4.9-2.5,8.6c0,3.7,0.8,6.6,2.5,8.6
	C536.8,75.5,539.1,76.5,542.1,76.5z M583.4,77c0.2,0.3,0.3,0.6,0.3,0.9c0,0.4-0.2,0.7-0.5,1c-0.3,0.2-0.6,0.4-1,0.4
	c-0.6,0-1.1-0.3-1.4-0.8l-5.4-8.5c-0.7-1.1-1.4-1.8-2.2-2.2c-0.7-0.4-1.8-0.6-3-0.6h-5v10.4c0,0.5-0.1,0.9-0.4,1.2
	c-0.3,0.3-0.7,0.4-1.2,0.4c-0.5,0-0.9-0.1-1.2-0.4c-0.3-0.3-0.4-0.7-0.4-1.2V52.4c0-0.5,0.1-0.9,0.4-1.2c0.3-0.3,0.7-0.4,1.2-0.4
	h9.9c3.1,0,5.4,0.7,7,2c1.6,1.4,2.4,3.4,2.4,6c0,2.2-0.7,4-2,5.4c-1.3,1.4-3.1,2.2-5.5,2.5c0.7,0.2,1.3,0.6,1.8,1
	c0.5,0.5,1.1,1.1,1.6,2L583.4,77z M573.2,64.4c2.2,0,3.8-0.5,4.9-1.4c1.1-0.9,1.6-2.3,1.6-4.1c0-1.8-0.5-3.2-1.6-4
	c-1.1-0.9-2.7-1.3-4.9-1.3h-8.1v10.8H573.2z"/>
<path class="st4" d="M79,87.7c-2.3,0-4.3,0.8-5.9,2.4c-1.6,1.6-2.4,3.6-2.4,5.8v34.9c0,2.3,0.8,4.3,2.4,5.9c1.6,1.6,3.6,2.4,5.9,2.4
	c2.3,0,4.3-0.8,5.9-2.4c1.6-1.6,2.4-3.6,2.4-5.9V96c0-2.3-0.8-4.2-2.4-5.8C83.2,88.5,81.3,87.7,79,87.7z"/>
<path class="st4" d="M90.5,143.3c0,2.5,0.9,4.6,2.6,6.3c1.7,1.7,3.8,2.6,6.3,2.6h6l0.1,18.4c0,2.3,0.8,4.3,2.4,5.9s3.6,2.4,5.8,2.4
	c2.3,0,4.3-0.8,5.9-2.4s2.4-3.6,2.4-5.9v-18.4h11.2v18.4c0,2.3,0.8,4.3,2.4,5.9c1.6,1.6,3.6,2.4,5.9,2.4c2.3,0,4.3-0.8,5.9-2.4
	c1.6-1.6,2.4-3.6,2.4-5.9v-18.4h6.1c2.4,0,4.5-0.9,6.2-2.6s2.6-3.8,2.6-6.3v-54H90.5V143.3z"/>
<path class="st4" d="M146.2,56.4l5.8-10.6c0.4-0.7,0.2-1.2-0.4-1.6c-0.7-0.3-1.2-0.2-1.6,0.5l-5.8,10.7c-5.1-2.3-10.6-3.4-16.3-3.4
	c-5.7,0-11.2,1.1-16.3,3.4l-5.8-10.7c-0.4-0.6-0.9-0.8-1.6-0.5c-0.6,0.4-0.8,0.9-0.4,1.6l5.8,10.6c-5.8,3-10.5,7.1-14,12.5
	c-3.5,5.3-5.2,11.2-5.2,17.5h75c0-6.3-1.7-12.2-5.2-17.5C156.6,63.5,152,59.4,146.2,56.4z M112.9,71.9c-0.6,0.6-1.4,0.9-2.2,0.9
	c-0.9,0-1.6-0.3-2.2-0.9c-0.6-0.6-0.9-1.4-0.9-2.2c0-0.9,0.3-1.6,0.9-2.2c0.6-0.6,1.3-0.9,2.2-0.9c0.9,0,1.6,0.3,2.2,0.9
	c0.6,0.6,0.9,1.4,0.9,2.2C113.8,70.5,113.5,71.2,112.9,71.9z M147.1,71.9c-0.6,0.6-1.3,0.9-2.2,0.9c-0.9,0-1.6-0.3-2.2-0.9
	c-0.6-0.6-0.9-1.4-0.9-2.2c0-0.9,0.3-1.6,0.9-2.2c0.6-0.6,1.4-0.9,2.2-0.9c0.9,0,1.6,0.3,2.2,0.9c0.6,0.6,0.9,1.4,0.9,2.2
	C148,70.5,147.7,71.2,147.1,71.9z"/>
<path class="st4" d="M182.4,90.1c-1.6-1.6-3.6-2.4-5.9-2.4c-2.3,0-4.2,0.8-5.8,2.4c-1.6,1.6-2.4,3.6-2.4,5.9v34.9
	c0,2.3,0.8,4.3,2.4,5.9c1.6,1.6,3.6,2.4,5.8,2.4c2.3,0,4.3-0.8,5.9-2.4c1.6-1.6,2.4-3.6,2.4-5.9V96
	C184.9,93.7,184.1,91.7,182.4,90.1z"/>
<path class="st4" d="M303.9,161.5c0.3,0.7,0.5,1.3,0.5,1.8c0,1.2-0.5,2.1-1.5,2.9c-0.9,0.8-2,1.2-3.1,1.2c-0.8,0-1.6-0.2-2.3-0.6
	c-0.7-0.5-1.2-1.2-1.6-2l-6.1-13.8h-33.7l-6.1,13.8c-0.4,0.9-0.9,1.5-1.7,2c-0.7,0.4-1.5,0.6-2.3,0.6c-1.2,0-2.3-0.4-3.3-1.2
	c-0.9-0.8-1.4-1.8-1.4-2.9c0-0.5,0.2-1.1,0.5-1.8l25.9-56.8c0.4-1,1.1-1.7,2-2.3c1-0.6,2-0.8,3-0.8s2,0.3,2.9,0.8
	c1,0.6,1.7,1.3,2.1,2.3L303.9,161.5z M259.5,143.4h27L273,113L259.5,143.4z M341.3,121c10.7,0,16.1,6,16.1,18.1V163
	c0,1.4-0.4,2.5-1.3,3.3c-0.8,0.7-1.9,1.1-3.4,1.1c-1.4,0-2.5-0.4-3.4-1.2c-0.8-0.8-1.2-1.9-1.2-3.2v-23.5c0-3.8-0.8-6.6-2.3-8.4
	c-1.5-1.8-3.8-2.7-7-2.7c-3.7,0-6.7,1.2-9,3.5c-2.3,2.3-3.4,5.5-3.4,9.4V163c0,1.3-0.4,2.4-1.3,3.2c-0.8,0.8-1.9,1.2-3.3,1.2
	c-1.4,0-2.5-0.4-3.4-1.2c-0.9-0.8-1.3-1.9-1.3-3.2v-37.4c0-1.3,0.4-2.3,1.3-3.1c0.9-0.9,2.1-1.3,3.4-1.3c1.3,0,2.4,0.4,3.2,1.2
	c0.8,0.8,1.2,1.8,1.2,3.1v3.8c1.5-2.7,3.5-4.8,6.2-6.2C335,121.7,338,121,341.3,121z M410.8,101.7c1.4,0,2.5,0.4,3.4,1.2
	c0.9,0.8,1.3,1.9,1.3,3.2V163c0,1.4-0.4,2.5-1.3,3.3c-0.8,0.8-1.9,1.2-3.3,1.2c-1.4,0-2.5-0.4-3.4-1.2c-0.8-0.8-1.2-1.9-1.2-3.3
	v-3.7c-1.3,2.7-3.3,4.8-5.9,6.3c-2.6,1.4-5.5,2.1-8.9,2.1c-3.9,0-7.3-1-10.4-2.9c-3-2-5.4-4.7-7.1-8.3c-1.7-3.6-2.5-7.6-2.5-12.2
	c0-4.7,0.8-8.7,2.5-12.2c1.7-3.5,4.1-6.2,7.1-8.1c3-1.9,6.5-2.9,10.4-2.9c3.4,0,6.3,0.7,8.8,2.2c2.6,1.4,4.5,3.4,5.9,6.1v-23.4
	c0-1.3,0.4-2.3,1.2-3C408.3,102.1,409.4,101.7,410.8,101.7z M393.7,160.3c4,0,7.1-1.4,9.3-4.1c2.2-2.8,3.3-6.7,3.3-11.8
	s-1.1-9-3.3-11.8c-2.1-2.8-5.2-4.1-9.3-4.1c-4,0-7.2,1.4-9.5,4.1c-2.2,2.7-3.3,6.6-3.3,11.6c0,5,1.1,9,3.4,11.9
	C386.6,158.9,389.7,160.3,393.7,160.3z M456,121.2c2.9-0.2,4.4,1.1,4.4,3.8c0,1.3-0.3,2.4-1,3c-0.7,0.7-1.8,1.1-3.5,1.2l-2.8,0.3
	c-3.9,0.4-6.7,1.7-8.6,4c-1.8,2.3-2.8,5.2-2.8,8.5V163c0,1.5-0.4,2.6-1.3,3.3c-0.9,0.7-2,1.1-3.3,1.1c-1.4,0-2.5-0.4-3.4-1.1
	c-0.9-0.7-1.3-1.8-1.3-3.3v-37.4c0-1.4,0.4-2.5,1.3-3.2c0.9-0.8,2.1-1.2,3.4-1.2c1.2,0,2.2,0.4,3,1.2c0.9,0.7,1.3,1.8,1.3,3.1v4.4
	c1.2-2.7,3-4.8,5.3-6.2c2.3-1.4,5-2.2,7.9-2.5L456,121.2z M488.8,167.6c-4.4,0-8.3-1-11.7-2.9c-3.3-1.9-5.9-4.6-7.7-8.1
	c-1.8-3.6-2.7-7.7-2.7-12.3c0-4.7,0.9-8.8,2.7-12.3c1.8-3.6,4.4-6.3,7.7-8.2c3.4-1.9,7.3-2.9,11.7-2.9c4.4,0,8.3,1,11.6,2.9
	c3.4,1.9,5.9,4.6,7.7,8.2c1.8,3.5,2.8,7.6,2.8,12.3c0,4.7-0.9,8.8-2.8,12.3c-1.8,3.5-4.4,6.2-7.7,8.1
	C497,166.7,493.2,167.6,488.8,167.6z M488.8,160.3c4.1,0,7.2-1.3,9.4-4c2.2-2.7,3.3-6.7,3.3-11.9c0-5.2-1.1-9.1-3.3-11.8
	c-2.2-2.8-5.3-4.1-9.4-4.1s-7.2,1.4-9.4,4.1c-2.2,2.7-3.3,6.6-3.3,11.8c0,5.2,1.1,9.2,3.2,11.9C481.5,158.9,484.7,160.3,488.8,160.3
	z M529.9,167.5c-1.3,0-2.5-0.4-3.4-1.1c-0.9-0.7-1.3-1.8-1.3-3.3v-37.4c0-1.5,0.4-2.6,1.3-3.3c0.9-0.8,2.1-1.2,3.4-1.2
	c1.3,0,2.5,0.4,3.3,1.2c0.9,0.7,1.3,1.8,1.3,3.3V163c0,1.5-0.4,2.6-1.3,3.3C532.3,167.1,531.2,167.5,529.9,167.5z M529.9,112.2
	c-1.8,0-3.2-0.5-4.2-1.5c-1-1-1.6-2.3-1.6-3.9s0.5-2.9,1.6-3.8c1-1,2.5-1.5,4.2-1.5c1.7,0,3.1,0.5,4.1,1.5c1.1,0.9,1.7,2.2,1.7,3.8
	s-0.5,2.9-1.6,3.9C533.1,111.7,531.7,112.2,529.9,112.2z M588.2,101.7c1.4,0,2.5,0.4,3.4,1.2c0.9,0.8,1.3,1.9,1.3,3.2V163
	c0,1.4-0.4,2.5-1.3,3.3c-0.8,0.8-1.9,1.2-3.3,1.2c-1.4,0-2.5-0.4-3.4-1.2c-0.8-0.8-1.2-1.9-1.2-3.3v-3.7c-1.4,2.7-3.3,4.8-5.9,6.3
	c-2.6,1.4-5.6,2.1-8.9,2.1c-3.9,0-7.3-1-10.4-2.9c-3-2-5.4-4.7-7.1-8.3c-1.7-3.6-2.5-7.6-2.5-12.2c0-4.7,0.8-8.7,2.5-12.2
	c1.7-3.5,4.1-6.2,7.1-8.1c3-1.9,6.5-2.9,10.4-2.9c3.4,0,6.3,0.7,8.8,2.2c2.6,1.4,4.5,3.4,5.9,6.1v-23.4c0-1.3,0.4-2.3,1.2-3
	C585.6,102.1,586.8,101.7,588.2,101.7z M571.1,160.3c4,0,7.1-1.4,9.3-4.1c2.2-2.8,3.3-6.7,3.3-11.8s-1.1-9-3.3-11.8
	c-2.1-2.8-5.2-4.1-9.3-4.1s-7.2,1.4-9.5,4.1c-2.2,2.7-3.3,6.6-3.3,11.6c0,5,1.1,9,3.4,11.9C564,158.9,567.1,160.3,571.1,160.3z"/>
</svg>
