<?xml version="1.0" encoding="utf-8"?>
<!-- Generator: Adobe Illustrator 25.0.0, SVG Export Plug-In . SVG Version: 6.00 Build 0)  -->
<svg version="1.1" id="Слой_1" xmlns="http://www.w3.org/2000/svg" xmlns:xlink="http://www.w3.org/1999/xlink" x="0px" y="0px"
	 viewBox="0 0 731.1 237.2" style="enable-background:new 0 0 731.1 237.2;" xml:space="preserve">
<style type="text/css">
	.st0{fill:#95A954;}
	.st1{fill:url(#SVGID_1_);filter:url(#Adobe_OpacityMaskFilter);}
	.st2{mask:url(#mask0_1_);}
	.st3{fill-rule:evenodd;clip-rule:evenodd;fill:#E8F0C1;fill-opacity:0.2;}
	.st4{fill-rule:evenodd;clip-rule:evenodd;fill:#FFFFFF;}
</style>
<path class="st0" d="M46.9,237.1c-1.9,0-3.7,0-5.6-0.1c-3.9-0.1-7.8-0.4-11.6-1c-3.6-0.6-7-1.8-10.3-3.4c-3.2-1.6-6.1-3.8-8.7-6.3
	c-2.6-2.5-4.7-5.4-6.3-8.7c-1.6-3.2-2.8-6.7-3.4-10.3c-0.6-3.8-1-7.7-1-11.6c0-1.2-0.1-5.1-0.1-5.6c0,0,0-0.1,0-0.1V47
	c0,0,0-0.1,0-0.1c0-0.5,0.1-4.3,0.1-5.5c0-3.9,0.4-7.8,1-11.6c0.6-3.6,1.7-7.1,3.4-10.3c1.6-3.2,3.7-6.1,6.3-8.7
	c2.5-2.6,5.5-4.7,8.7-6.3c3.2-1.6,6.7-2.8,10.3-3.4c3.8-0.6,7.7-1,11.6-1L46.9,0h637.2l5.7,0.1c3.9,0,7.7,0.4,11.5,1
	c3.6,0.6,7.1,1.8,10.4,3.4c6.4,3.3,11.7,8.6,15,15c1.6,3.2,2.7,6.7,3.3,10.2c0.6,3.9,1,7.8,1.1,11.7c0,1.8,0,3.6,0,5.5
	c0,2.3,0,4.5,0,6.8v129.8c0,2.3,0,4.4,0,6.7c0,2,0,3.9,0,5.8c-0.1,3.9-0.4,7.7-1.1,11.5c-0.6,3.6-1.7,7.1-3.3,10.4
	c-1.6,3.2-3.8,6.1-6.3,8.6c-2.5,2.6-5.5,4.7-8.7,6.3c-3.3,1.6-6.7,2.8-10.3,3.4c-3.8,0.6-7.7,1-11.6,1c-1.8,0-3.7,0.1-5.6,0.1
	l-6.7,0L46.9,237.1z"/>
<defs>
	<filter id="Adobe_OpacityMaskFilter" filterUnits="userSpaceOnUse" x="-223.5" y="18.5" width="953.2" height="254">
		<feColorMatrix  type="matrix" values="1 0 0 0 0  0 1 0 0 0  0 0 1 0 0  0 0 0 1 0"/>
	</filter>
</defs>
<mask maskUnits="userSpaceOnUse" x="-223.5" y="18.5" width="953.2" height="254" id="mask0_1_">
	
		<linearGradient id="SVGID_1_" gradientUnits="userSpaceOnUse" x1="-4.9212" y1="220.9931" x2="736.96" y2="19.8826" gradientTransform="matrix(1 0 0 -1 0 239.147)">
		<stop  offset="0" style="stop-color:#8ABE1F"/>
		<stop  offset="1" style="stop-color:#659921"/>
	</linearGradient>
	<path class="st1" d="M46.9,237.1c-1.9,0-3.7,0-5.6-0.1c-3.9-0.1-7.8-0.4-11.6-1c-3.6-0.6-7-1.8-10.3-3.4c-3.2-1.6-6.1-3.8-8.7-6.3
		c-2.6-2.5-4.7-5.4-6.3-8.7c-1.6-3.2-2.8-6.7-3.4-10.3c-0.6-3.8-1-7.7-1-11.6c0-1.2-0.1-5.3-0.1-5.6c0,0,0,0,0-0.1V47c0,0,0,0,0-0.1
		c0-0.4,0.1-4.3,0.1-5.5c0-3.9,0.4-7.8,1-11.6c0.6-3.6,1.7-7.1,3.4-10.3c1.6-3.2,3.7-6.1,6.3-8.7c2.5-2.6,5.5-4.7,8.7-6.3
		c3.2-1.6,6.7-2.8,10.3-3.4c3.8-0.6,7.7-1,11.6-1L46.9,0h637.2l5.7,0.1c3.9,0,7.7,0.4,11.5,1c3.6,0.6,7.1,1.8,10.4,3.4
		c6.4,3.3,11.7,8.6,15,15c1.6,3.2,2.7,6.7,3.3,10.2c0.6,3.9,1,7.8,1.1,11.7c0,1.8,0,3.6,0,5.5c0,2.3,0,4.5,0,6.8v129.8
		c0,2.3,0,4.4,0,6.7c0,2,0,3.9,0,5.8c-0.1,3.9-0.4,7.7-1.1,11.5c-0.6,3.6-1.7,7.1-3.3,10.4c-1.6,3.2-3.8,6.1-6.3,8.6
		c-2.5,2.6-5.5,4.7-8.7,6.3c-3.3,1.6-6.7,2.8-10.3,3.4c-3.8,0.6-7.7,1-11.6,1c-1.8,0-3.7,0.1-5.6,0.1l-6.7,0L46.9,237.1z"/>
</mask>
<g class="st2">
	<path class="st3" d="M-223.5,83.6c0,0,148.4-65.1,268.3-65.1c276.1,0,235.3,245.7,455.6,245.7c145.8,0,229.3-92.4,229.3-92.4v100.7
		h-953.2V83.6z"/>
</g>
<path class="st4" d="M457.6,174.8c-10.1,0-17.6-5-18.4-12.6l-11.8,0c0.7,13.9,12.3,22.7,29.3,22.7c18.2,0,29.7-9,29.7-23.4
	c0-11.3-6.6-17.6-22.4-21.3l-8.5-2.1c-9.9-2.5-14-5.7-14-11.1c0-6.8,6.4-11.5,15.6-11.5c9.3,0,15.6,4.6,16.3,12.3h11.6
	c-0.4-13.3-11.5-22.4-27.8-22.4c-16.4,0-28,9.1-28,22.4c0,10.7,6.6,17.3,20.7,20.8l10,2.4c10,2.5,14.2,6,14.2,12
	C474.3,169.8,467.3,174.8,457.6,174.8z M256.9,162.8h-29.3l-7,20.8H208l27.8-77h12.9l27.8,77h-12.6L256.9,162.8z M230.6,153.2h23.3
	l-11.5-33.8H242L230.6,153.2z M313.2,184.2c14.1,0,23.4-11.2,23.4-28.7c0-17.4-9.4-28.7-23.6-28.7c-7.3-0.2-14.2,3.6-17.9,9.9h-0.2
	v-9.3h-11.2v74.7h11.5v-27.8h0.3C299,180.8,305.9,184.6,313.2,184.2z M324.7,155.6c0-11.4-5.9-18.8-14.8-18.8
	c-8.8,0-14.7,7.6-14.7,18.8c0,11.3,5.9,18.9,14.7,18.9C318.9,174.5,324.7,167.1,324.7,155.6z M374.9,184.2
	c14.1,0,23.4-11.2,23.4-28.7c0-17.4-9.4-28.7-23.6-28.7c-7.3-0.2-14.2,3.6-17.9,9.9h-0.2v-9.3h-11.2v74.7H357v-27.8h0.3
	C360.8,180.8,367.7,184.6,374.9,184.2z M386.5,155.6c0-11.4-5.9-18.8-14.8-18.8c-8.8,0-14.7,7.6-14.7,18.8
	c0,11.3,5.9,18.9,14.7,18.9C380.6,174.5,386.5,167.1,386.5,155.6z M511.3,114.2v13.3H522v9.1h-10.7v30.9c0,4.8,2.1,7,6.8,7
	c1.3,0,2.5-0.1,3.8-0.3v9.1c-2.1,0.4-4.3,0.6-6.4,0.5c-11.4,0-15.8-4.3-15.8-15.2v-32.2h-8.2v-9.1h8.2v-13.3H511.3z M554.8,126.8
	c-16.2,0-26.6,11.1-26.6,28.8c0,17.7,10.3,28.8,26.6,28.8c16.3,0,26.6-11,26.6-28.8C581.4,137.9,571.1,126.8,554.8,126.8z
	 M569.7,155.6c0-12.1-5.6-19.3-14.9-19.3c-9.3,0-14.9,7.2-14.9,19.3c0,12.2,5.5,19.3,14.9,19.3C564.1,174.8,569.7,167.8,569.7,155.6
	L569.7,155.6z M601.9,127.5h-11v56.1h11.5v-33.3c-0.4-3.4,0.7-6.7,3-9.2s5.6-3.8,9-3.7c1.8-0.1,3.5,0.2,5.2,0.7v-10.8
	c-1.3-0.3-2.6-0.4-3.9-0.4c-6.3-0.2-12,4-13.5,10.1h-0.3V127.5z M672.8,167.2c-1.6,10.2-11.5,17.2-24.2,17.2
	c-16.3,0-26.5-10.9-26.5-28.5c0-17.6,10.2-29,26-29c15.5,0,25.3,10.7,25.3,27.7v3.9h-39.6v0.7c-0.4,4.2,1.1,8.3,4,11.4
	c2.9,3,6.9,4.7,11.1,4.5c5.6,0.5,10.9-2.7,13-7.9H672.8z M661.9,150.4h-28.1c0-3.8,1.5-7.4,4.2-10.1c2.7-2.7,6.3-4.2,10.1-4.1
	c3.8-0.1,7.4,1.4,10,4.1C660.7,143,662.1,146.7,661.9,150.4z"/>
<path class="st4" d="M361,46.9h5.5v38.8H361V46.9z M242.2,53.8c-3.4-3.6-8.2-5.4-13.1-5.1h-13.4v37h13.4c11,0,17.4-6.8,17.4-18.6
	C247.1,62.2,245.5,57.3,242.2,53.8z M228.5,80.5h-7V53.9h7c3.5-0.2,6.9,1.2,9.2,3.7c2.4,2.6,3.5,6,3,9.5c0.5,3.5-0.6,7-2.9,9.6
	C235.4,79.3,232,80.7,228.5,80.5z M253,71.7c-0.5-5,1.9-9.8,6.2-12.5c4.3-2.7,9.7-2.7,13.9,0c4.3,2.7,6.7,7.5,6.2,12.5
	c0.5,5-1.9,9.9-6.2,12.5c-4.3,2.7-9.7,2.7-14,0C254.9,81.6,252.5,76.7,253,71.7z M266.2,62.1c4.8,0,7.5,3.5,7.5,9.6l0,0
	c0,6.1-2.7,9.6-7.5,9.6c-4.8,0-7.5-3.5-7.5-9.6C258.7,65.7,261.4,62.1,266.2,62.1z M314.3,85.7h-5.7l-5.8-20.6h-0.4l-5.7,20.6H291
	l-7.7-27.9h5.6l5,21.3h0.4l5.7-21.3h5.3l5.7,21.3h0.4l5-21.3h5.5L314.3,85.7z M333.8,57.8h-5.3v27.9h5.5V69.4
	c-0.2-1.9,0.4-3.7,1.7-5.1c1.3-1.4,3.1-2.1,5-2c4.1,0,6,2.2,6,6.7v16.7h5.5V67.6c0.4-2.7-0.5-5.5-2.3-7.5c-1.9-2-4.6-3.1-7.3-2.9
	c-3.6-0.3-6.9,1.7-8.3,5h-0.4V57.8z M380.3,59.2c-4.3,2.7-6.7,7.5-6.2,12.5c-0.5,5,1.9,9.9,6.2,12.5c4.3,2.7,9.7,2.7,14,0
	c4.3-2.7,6.7-7.5,6.2-12.5c0.5-5-1.9-9.8-6.2-12.5C390,56.6,384.6,56.6,380.3,59.2z M394.8,71.7c0-6.1-2.7-9.6-7.5-9.6
	c-4.8,0-7.5,3.5-7.5,9.6c0,6.1,2.7,9.6,7.5,9.6C392.1,81.3,394.8,77.8,394.8,71.7z M416.7,69.5c-6.6,0.4-10.4,3.3-10.4,8.3
	c0,2.4,1,4.7,2.8,6.2c1.8,1.6,4.1,2.4,6.5,2.1c3.4,0.2,6.6-1.5,8.4-4.4h0.4v3.9h5.3V66.6c0-5.9-3.9-9.4-10.9-9.4
	c-6.3,0-10.8,3.1-11.4,7.9h5.3c0.6-2,2.7-3.1,5.8-3.1c3.8,0,5.7,1.7,5.7,4.6V69L416.7,69.5z M424.2,75.4v-2.3l-6.8,0.4
	c-3.8,0.3-5.6,1.6-5.6,4c0,2.5,2.2,4,5.2,4c1.8,0.2,3.5-0.4,4.9-1.5C423.3,78.9,424.1,77.2,424.2,75.4z M448.5,57.3
	c-7.1,0-11.6,5.6-11.6,14.4c0,8.8,4.5,14.4,11.6,14.4c3.6,0.1,7-1.7,8.8-4.9h0.4v4.4h5.3V46.9h-5.5v15.3h-0.4
	C455.4,59.1,452.1,57.2,448.5,57.3z M442.6,71.7c0,5.9,2.8,9.5,7.5,9.5c4.6,0,7.5-3.6,7.5-9.5c0-5.8-2.9-9.5-7.5-9.5
	C445.5,62.3,442.6,65.9,442.6,71.7L442.6,71.7z M492,59.2c-4.3,2.7-6.7,7.5-6.2,12.5c-0.5,5,1.9,9.9,6.2,12.5c4.3,2.7,9.7,2.7,14,0
	c4.3-2.7,6.7-7.5,6.2-12.5c0.5-5-1.9-9.8-6.2-12.5C501.7,56.6,496.3,56.6,492,59.2z M506.5,71.7c0-6.1-2.7-9.6-7.5-9.6
	c-4.8,0-7.5,3.5-7.5,9.6c0,6.1,2.7,9.6,7.5,9.6C503.8,81.3,506.5,77.8,506.5,71.7z M524.8,57.8h-5.3v27.9h5.5V69.4
	c-0.2-1.9,0.4-3.7,1.7-5.1c1.3-1.4,3.1-2.1,5-2c4.1,0,6,2.2,6,6.7v16.7h5.5V67.6c0.4-2.7-0.5-5.5-2.3-7.5c-1.9-2-4.6-3.1-7.3-2.9
	c-3.6-0.3-6.9,1.7-8.3,5h-0.4V57.8z M574.4,50.8v7.1h6v4.6h-6v14.4c0,2.9,1.2,4.2,3.9,4.2c0.7,0,1.4,0,2.1-0.1v4.6
	c-1,0.2-2,0.3-3,0.3c-6.1,0-8.6-2.2-8.6-7.5V62.6h-4.4v-4.6h4.4v-7.1H574.4z M593.4,46.9H588v38.8h5.5V69.4
	c-0.2-1.9,0.5-3.8,1.9-5.2c1.4-1.4,3.2-2.1,5.2-1.9c3.9,0,6,2.3,6,6.7v16.7h5.5v-18c0.4-2.7-0.5-5.5-2.4-7.5c-1.9-2-4.5-3.1-7.3-2.9
	c-3.6-0.3-7,1.7-8.5,5h-0.4V46.9z M644.1,78.2c-1.5,5.3-6.6,8.7-12.1,8.1c-3.7,0.1-7.3-1.4-9.8-4.2c-2.5-2.8-3.6-6.5-3.1-10.2
	c-0.5-3.7,0.6-7.4,3.1-10.2c2.5-2.8,6-4.4,9.8-4.4c7.8,0,12.5,5.3,12.5,14.1v1.9h-19.7v0.3c-0.2,2.1,0.5,4.1,1.9,5.6
	c1.4,1.5,3.4,2.4,5.5,2.4c2.7,0.3,5.3-1,6.6-3.4L644.1,78.2z M638.8,69.2h-14.1c0-1.9,0.7-3.8,2.1-5.1c1.4-1.4,3.2-2.1,5.1-2.1
	c1.9,0,3.7,0.7,5,2.1C638.3,65.4,639,67.3,638.8,69.2z"/>
<path class="st4" d="M138.1,48.6c0.6,7.8-1.9,15.6-6.9,21.6c-4.9,6.1-12.3,9.6-20.1,9.5c-0.5-7.6,2.1-15.1,7.1-20.8
	C123.3,53.1,130.4,49.4,138.1,48.6z M162.8,94.7c-9,5.5-14.5,15.2-14.6,25.7c0,11.9,7.1,22.6,18.1,27.3c-2.1,6.8-5.3,13.3-9.4,19.2
	c-5.5,8.3-11.4,16.4-20.6,16.5c-4.4,0.1-7.4-1.2-10.4-2.5c-3.2-1.4-6.6-2.8-11.8-2.8c-5.6,0-9.1,1.5-12.5,2.9
	c-2.9,1.2-5.8,2.4-9.7,2.6c-8.8,0.3-15.5-8.9-21.3-17.1c-11.5-16.8-20.4-47.3-8.4-68.1C67.7,88.4,78.3,82,89.8,81.6
	c5-0.1,9.8,1.8,14,3.5c3.2,1.3,6.1,2.4,8.4,2.4c2.1,0,4.8-1.1,8.1-2.4c5.1-2,11.4-4.5,17.7-3.8C147.9,81.6,157.1,86.6,162.8,94.7z"
	/>
</svg>
