<?xml version="1.0" encoding="utf-8"?>
<!-- Generator: Adobe Illustrator 24.2.1, SVG Export Plug-In . SVG Version: 6.00 Build 0)  -->
<svg version="1.1" id="Layer_1" xmlns="http://www.w3.org/2000/svg" xmlns:xlink="http://www.w3.org/1999/xlink" x="0px" y="0px"
	 viewBox="0 0 122 26" style="enable-background:new 0 0 122 26;" xml:space="preserve">
<style type="text/css">
	.st0{fill:#92938D;}
</style>
<desc>Created with Sketch.</desc>
<g>
	<path class="st0" d="M11.6,13.1l-0.8,3.1c1,0.3,3.8,1.2,4.3-0.5C15.5,13.9,12.5,13.4,11.6,13.1z"/>
	<path class="st0" d="M12.6,8.8L12,11.7c0.8,0.3,3.2,1,3.7-0.6C15.9,9.5,13.4,9.1,12.6,8.8z"/>
	<path class="st0" d="M15.8,0.4C8.9-1.3,2.1,2.9,0.4,9.9c-1.8,6.9,2.4,14,9.3,15.7c6.9,1.7,13.7-2.5,15.5-9.5
		C26.7,9.2,22.6,2.1,15.8,0.4z M18.3,11.2c-0.3,1.3-0.9,1.8-1.8,2.1c1.3,0.7,1.9,1.7,1.3,3.5c-0.8,2.2-2.5,2.3-5,2l-0.5,2.3L11,20.7
		l0.5-2.3c-0.4-0.1-0.8-0.3-1.1-0.3l-0.5,2.3L8.4,20l0.6-2.3c-0.4-0.1-0.6-0.1-1-0.3L6.3,17l0.6-1.7c0,0,1,0.3,1,0.3
		c0.4,0.1,0.5-0.1,0.6-0.3l0.9-3.8h0.1H9.4l0.6-2.7c0-0.3-0.1-0.6-0.6-0.8l-1-0.3l0.4-1.6l1.9,0.5l0,0C11,6.9,11.3,6.9,11.6,7
		l0.5-2.3l1.4,0.4L13,7.3c0.4,0.1,0.8,0.1,1.1,0.3l0.5-2.3L16,5.6l-0.5,2.5C17.3,8.4,18.6,9.5,18.3,11.2z"/>
</g>
<path id="Shape_1_" class="st0" d="M37.3,7.9c1,0,1.9,0.3,2.7,0.5c0.8,0.4,1.4,0.9,1.9,1.6c0.5,0.7,0.9,1.4,1.1,2.2
	c0.3,0.9,0.4,1.8,0.4,2.7c0,1.6-0.3,3-0.9,4.3c-0.6,1.3-1.3,2.5-2.3,3.5s-2,1.8-3.3,2.3c-1.3,0.5-2.7,0.9-4.2,0.9c-0.3,0-0.5,0-1,0
	c-0.5,0-1,0-1.7-0.1c-0.6-0.1-1.3-0.3-2-0.4c-0.8-0.1-1.4-0.4-2-0.8l5.6-23.9L36.6,0l-2,8.4c0.4-0.3,0.9-0.4,1.3-0.4
	C36.4,7.9,36.8,7.9,37.3,7.9L37.3,7.9z M33.1,22c0.8,0,1.5-0.3,2.2-0.5c0.6-0.4,1.3-0.9,1.7-1.6c0.5-0.6,0.9-1.3,1.1-2.1
	c0.3-0.8,0.4-1.7,0.4-2.5c0-1-0.1-1.8-0.5-2.5c-0.4-0.7-1-0.9-1.9-0.9c-0.4,0-0.6,0-1.1,0.1c-0.5,0.1-0.9,0.4-1.3,0.7l-2.2,9
	c0.1,0,0.3,0,0.4,0.1c0.1,0,0.3,0,0.4,0s0.3,0,0.4,0C32.7,22,32.9,22,33.1,22L33.1,22z"/>
<path id="Shape_2_" class="st0" d="M48.4,25.6h-4.8l4.1-17.3h4.8L48.4,25.6z M50.9,6.1c-0.6,0-1.3-0.3-1.8-0.7
	c-0.5-0.4-0.8-1-0.8-1.8c0-0.4,0.1-0.9,0.3-1.3c0.3-0.4,0.4-0.8,0.8-1c0.4-0.3,0.6-0.5,1-0.6c0.4-0.1,0.9-0.3,1.3-0.3
	c0.6,0,1.3,0.3,1.8,0.6c0.5,0.4,0.8,1,0.8,1.8c0,0.4-0.1,0.9-0.3,1.3s-0.5,0.8-0.8,1c-0.4,0.3-0.6,0.5-1,0.7
	C51.6,6.1,51.2,6.1,50.9,6.1z"/>
<path id="Path_1_" class="st0" d="M56.7,3.9l5-0.8l-1.3,5.1h5.3l-1,4h-5.3l-1.4,6c-0.1,0.5-0.3,1-0.3,1.4c0,0.4,0,0.8,0.1,1.2
	c0.1,0.4,0.4,0.5,0.6,0.8c0.4,0.1,0.8,0.3,1.4,0.3c0.5,0,1,0,1.5-0.1c0.5-0.1,1-0.3,1.5-0.4l0.4,3.8c-0.6,0.3-1.4,0.4-2.2,0.7
	c-0.8,0.1-1.7,0.3-2.7,0.3c-1.5,0-2.7-0.3-3.4-0.6c-0.9-0.4-1.4-1-1.8-1.8c-0.4-0.8-0.5-1.7-0.4-2.7c0-1,0.3-2.1,0.4-3.3L56.7,3.9
	L56.7,3.9z"/>
<path id="Path_2_" class="st0" d="M65.6,18.6c0-1.6,0.3-2.9,0.8-4.3c0.5-1.3,1.1-2.5,2-3.5c0.9-1,1.9-1.7,3.2-2.3
	c1.3-0.5,2.7-0.9,4.2-0.9c1,0,1.8,0.1,2.5,0.3c0.8,0.3,1.5,0.4,2,0.8l-1.7,3.8c-0.4-0.1-0.9-0.4-1.4-0.5c-0.5-0.1-1-0.3-1.7-0.3
	c-1.7,0-2.9,0.5-3.8,1.7s-1.4,2.6-1.4,4.6c0,1.2,0.3,2.1,0.8,2.7s1.4,1,2.7,1c0.6,0,1.3-0.1,1.8-0.3c0.6-0.1,1.1-0.3,1.5-0.5
	l0.4,3.9c-0.6,0.3-1.3,0.4-2,0.7c-0.8,0.1-1.7,0.3-2.7,0.3c-1.3,0-2.4-0.3-3.4-0.6s-1.7-0.9-2.3-1.6c-0.6-0.6-1-1.4-1.3-2.3
	C65.7,20.5,65.6,19.6,65.6,18.6L65.6,18.6z"/>
<path id="Shape_3_" class="st0" d="M86.8,26c-1.1,0-2.2-0.1-2.9-0.5c-0.9-0.4-1.5-0.9-2-1.4c-0.5-0.6-1-1.4-1.3-2.2
	c-0.3-0.9-0.4-1.8-0.4-2.9c0-1.3,0.3-2.6,0.6-3.9s1-2.5,1.9-3.5c0.8-1,1.8-2,2.9-2.6c1.1-0.6,2.5-1,4.1-1c1.1,0,2.2,0.1,2.9,0.5
	c0.9,0.4,1.5,0.9,2.2,1.4c0.5,0.6,1,1.4,1.3,2.2c0.3,0.9,0.4,1.8,0.4,2.9c0,1.3-0.3,2.6-0.6,3.9c-0.4,1.3-1,2.5-1.8,3.5
	c-0.8,1-1.8,1.9-2.9,2.6C89.7,25.7,88.4,26,86.8,26L86.8,26z M89.2,12c-0.8,0-1.3,0.3-1.9,0.7c-0.5,0.4-1,0.9-1.4,1.6
	c-0.4,0.6-0.6,1.3-0.9,2.1c-0.3,0.8-0.3,1.4-0.3,2.2c0,1,0.1,2,0.5,2.6c0.4,0.6,1,0.9,1.9,0.9c0.8,0,1.3-0.3,1.9-0.6
	c0.5-0.4,1-0.9,1.4-1.6c0.4-0.6,0.6-1.3,0.9-2.1c0.3-0.8,0.3-1.4,0.3-2.2c0-1-0.1-1.9-0.5-2.6C90.8,12.2,90.1,12,89.2,12z"/>
<path id="Shape_4_" class="st0" d="M101.6,25.6h-4.8l4.1-17.3h4.8L101.6,25.6L101.6,25.6z M103.9,6.1c-0.6,0-1.3-0.3-1.8-0.7
	c-0.5-0.4-0.8-1-0.8-1.8c0-0.4,0.1-0.9,0.3-1.3s0.4-0.8,0.8-1c0.4-0.3,0.6-0.5,1-0.6s0.9-0.3,1.3-0.3c0.6,0,1.3,0.3,1.8,0.6
	s0.8,1,0.8,1.8c0,0.4-0.1,0.9-0.3,1.3s-0.4,0.8-0.6,1c-0.4,0.3-0.6,0.5-1,0.7C104.7,6.1,104.4,6.1,103.9,6.1L103.9,6.1z"/>
<path id="Path_3_" class="st0" d="M109.1,9c0.4-0.1,0.8-0.3,1.1-0.4s0.9-0.3,1.5-0.4c0.5-0.1,1.1-0.3,1.8-0.3c0.8,0,1.5-0.1,2.4-0.1
	c2.5,0,4.3,0.8,5.2,2.2s1.1,3.5,0.5,6.1l-2.2,9.4h-4.8l2.2-9.1c0.1-0.5,0.3-1.2,0.4-1.7c0.1-0.5,0.1-1,0-1.4c-0.1-0.4-0.3-0.8-0.6-1
	c-0.4-0.3-0.8-0.4-1.4-0.4c-0.6,0-1.3,0.1-1.9,0.3l-3.2,13.4h-4.8L109.1,9L109.1,9z"/>
</svg>
