<?xml version="1.0" encoding="utf-8"?>
<!-- Generator: Adobe Illustrator 24.2.1, SVG Export Plug-In . SVG Version: 6.00 Build 0)  -->
<svg version="1.1" id="Layer_1" xmlns="http://www.w3.org/2000/svg" xmlns:xlink="http://www.w3.org/1999/xlink" x="0px" y="0px"
	 viewBox="0 0 146 36" style="enable-background:new 0 0 146 36;" xml:space="preserve">
<style type="text/css">
	.st0{fill:#92938D;}
</style>
<desc>Created with Sketch.</desc>
<g>
	<path class="st0" d="M36.2,15.2c-3,0-5.2,2.6-5.2,5.5c0,2.8,2.2,5.5,5.2,5.5c1.8,0,3.5-0.8,4.5-2.3c0,0,0-0.1,0-0.3
		c0-0.3-0.1-0.4-0.4-0.4c-0.1,0-0.3,0.1-0.4,0.3c-0.8,1.3-2,1.9-3.7,1.9c-2.3,0-4.1-2.1-4.2-4.1h9c0.3,0,0.5-0.1,0.5-0.5
		C41.3,17.9,39.2,15.2,36.2,15.2z M31.9,20.3c0.3-2.2,1.9-4.1,4.2-4.1s4.1,2.1,4.2,4.1H31.9z M52.7,15.9c0,0.3-0.1,0.4-0.4,0.4h-2.3
		v9.3c0,0.3-0.1,0.4-0.4,0.4c-0.3,0-0.4-0.3-0.4-0.4v-9.3h-2.3c-0.3,0-0.4-0.1-0.4-0.4c0-0.3,0.1-0.4,0.4-0.4h2.3v-3.5
		c0-0.3,0.1-0.4,0.4-0.5c0.3,0,0.5,0.1,0.5,0.4v3.3h2.3C52.5,15.4,52.7,15.7,52.7,15.9z M67,19.9v5.7c0,0.3-0.3,0.4-0.4,0.4
		c-0.3,0-0.4-0.1-0.4-0.4v-5.7c0-1.9-1.1-3.7-3.3-3.7c-2.7,0-4,2.3-3.8,4.8v0.4v4.2c0,0.3-0.1,0.4-0.4,0.5c-0.3,0-0.5-0.1-0.5-0.4
		V7.1c0.1-0.3,0.3-0.4,0.5-0.4s0.4,0.3,0.4,0.4v10.4c0.8-1.3,2.2-2.3,3.7-2.3C65.5,15.3,67,17.5,67,19.9z M77.9,15.2
		c-3,0-5.2,2.6-5.2,5.5c0,2.8,2.2,5.5,5.2,5.5c1.8,0,3.5-0.8,4.5-2.3c0,0,0-0.1,0-0.3c0-0.3-0.1-0.4-0.4-0.4c-0.1,0-0.3,0.1-0.4,0.3
		c-0.8,1.3-2,1.9-3.7,1.9c-2.3,0-4.1-2.1-4.2-4.1h9c0.3,0,0.5-0.1,0.5-0.5C83,17.9,80.8,15.2,77.9,15.2z M73.5,20.3
		c0.3-2.2,1.9-4.1,4.2-4.1c2.3,0,4.1,2.1,4.2,4.1H73.5z M94,15.8c0,0.3-0.1,0.4-0.4,0.5c-2.6,0.4-3.8,2.4-3.8,5v4.2
		c0,0.3-0.1,0.4-0.4,0.5c-0.3,0-0.5-0.1-0.5-0.4v-9.6c0-0.3,0.1-0.4,0.4-0.5c0.3,0,0.5,0.1,0.5,0.4v1.9c0.7-1.3,2.2-2.4,3.7-2.4
		C93.9,15.4,94,15.6,94,15.8z M103.6,15.2c-3,0-5.2,2.6-5.2,5.5c0,2.8,2.2,5.5,5.2,5.5c1.8,0,3.5-0.8,4.5-2.3c0,0,0-0.1,0-0.3
		c0-0.3-0.1-0.4-0.4-0.4c-0.1,0-0.3,0.1-0.4,0.3c-0.8,1.3-2,1.9-3.7,1.9c-2.3,0-4.1-2.1-4.2-4.1h9c0.3,0,0.5-0.1,0.5-0.5
		C108.9,17.9,106.6,15.2,103.6,15.2z M99.3,20.3c0.3-2.2,1.9-4.1,4.2-4.1c2.3,0,4.1,2.1,4.2,4.1H99.3z M123.3,15.9V19v6.6
		c0,0.3-0.3,0.4-0.4,0.4c-0.3,0-0.4-0.1-0.4-0.4v-1.8c-0.7,1.4-2,2.4-3.7,2.4c-2.7,0-4.1-2.3-4.1-4.6v-5.7c0-0.3,0.1-0.4,0.4-0.4
		c0.3,0,0.4,0.3,0.4,0.4v5.7c0,1.9,1.1,3.7,3.3,3.7c3,0,3.7-2.8,3.7-5.8v-3.6c0-0.3,0.3-0.5,0.7-0.4
		C123.2,15.6,123.3,15.8,123.3,15.9z M146,19.9v5.7c0,0.3-0.3,0.4-0.4,0.4c-0.3,0-0.4-0.1-0.4-0.4v-5.7c0-1.9-1.1-3.7-3.3-3.7
		c-2.7,0-3.7,2.8-3.7,5v4.4c0,0.3-0.3,0.4-0.4,0.4c-0.3,0-0.4-0.1-0.4-0.4v-5.7c0-1.9-1.1-3.7-3.3-3.7c-2.7,0-3.8,2.1-3.7,4.9
		c0,0,0,0.1,0,0.3v4.2c0,0.3-0.1,0.4-0.4,0.5c-0.3,0-0.5-0.1-0.5-0.4v-9.6c0-0.3,0.1-0.4,0.4-0.5c0.3,0,0.5,0.1,0.5,0.4v1.7
		c0.8-1.3,2.2-2.3,3.7-2.3c1.9,0,3.3,1.2,3.8,2.8c0.7-1.7,2.2-2.8,4.1-2.8C144.5,15.3,146,17.5,146,19.9z M11.2,24.8L0,18.4L11.2,0
		l11.2,18.4L11.2,24.8z M0,20.4L11.2,36l11.2-15.6L11.2,27L0,20.4z"/>
</g>
</svg>
