<?xml version="1.0" encoding="utf-8"?>
<!-- Generator: Adobe Illustrator 23.1.0, SVG Export Plug-In . SVG Version: 6.00 Build 0)  -->
<svg version="1.1" id="svg" xmlns="http://www.w3.org/2000/svg" xmlns:xlink="http://www.w3.org/1999/xlink" x="0px" y="0px"
	 viewBox="0 0 365.9 309.5" style="enable-background:new 0 0 365.9 309.5;" xml:space="preserve">
<style type="text/css">
	.st0{fill:#92938D;}
</style>
<g>
	<path class="st0" d="M60.5,308.9c1.9,0.4,2.1,0.4,21.9,0.5l17.3,0.1l2.8,0c0,0,0,0,0,0v-46.6c0-32.6-0.1-46.9-0.2-47.7
		c-0.6-3.2-2.4-6.6-4.7-8.8c-1-1-33.2-23.1-33.6-23.1c0,0,0,1.9-0.1,5.1c0,5.3,0,14.2,0,25.2c0,18,0,18.5-0.4,19.2
		c-0.9,1.9-3.5,2-4.7,0.2c-0.3-0.5-0.4-2.1-0.5-32l-0.1-30.3c0-0.6-0.1-1.2-0.2-1.6l-0.3-0.9c-0.7-1.9-1.7-3.6-3.1-5c0,0,0,0-0.1,0
		c0,0,0,0,0,0c-3.1-3-7.5-4.3-11.8-3.2c-3.9,1-7.1,3.9-8.6,7.9l-0.4,1c0,0.5-0.1,2.3-0.1,4.9v50.6v54.1c0,0,0,0,0,0.1
		c0,0.2,0,0.5,0,0.7c0,0,0,0,0,0c0.1,0.5,0.1,1,0.2,1.5l0.2,1.1C36.9,295.7,46.7,305.7,60.5,308.9z"/>
	<path class="st0" d="M339.4,105.4c16.1-3.8,24.9-13.4,26.3-28.5c0-0.2,0-0.5,0.1-0.7c0-0.2,0-0.3,0-0.4c0.2-2.7,0.2-5.6-0.1-5.6
		c-0.2,0-14.8,3.4-17.3,4l-0.8,0.2l-0.1,3.1l0,0.6c0,0.4,0,0.7-0.1,1c0,0,0,0,0.1,0.1c0,0.2,0,0.7,0,0.9c0,0.2-0.1,0.1-0.1-0.4
		c-0.6,7.8-3.8,11.4-10.3,11.4c0,0-0.1,0-0.1,0c-1.2,0-2.3-0.2-3.1-0.7c-2.4-1.3-3.6-4.8-4-11.9c0,0.2,0,0.3,0,0.4
		c0,0.2-0.1,0-0.1-0.5s0-0.7,0.1-0.5c0,0,0,0.1,0,0.1c-0.1-1.2-0.1-2.4-0.2-3.8c0-1.8-0.1-3.5-0.1-5.1c0,0.2-0.1-0.2-0.1-1.1
		c0-1.1,0-1.6,0.1-1.1c0-1.6,0.1-3.1,0.2-4.5c0,0.1-0.1-0.1-0.1-0.4c0-0.4,0-0.6,0.1-0.5c0,0,0,0.1,0,0.2
		c0.7-10.1,3.3-14.4,8.8-16.2c2.7-0.9,4.7-0.8,6.1,0.2c0-0.1,0.2,0.1,0.7,0.6l0.6,0.7l-0.3-0.3c0.9,1.3,1.5,3.4,1.7,6.3
		c0-0.3,0-0.4,0.1-0.2c0,0.4,0,0.9,0,1.3c0,0,0,0,0,0c0,0,0,0,0,0.1c0,0.8,0.1,1.5,0.1,2.1c0.1,0.7,0.1,1.1,0.2,1.2
		c0.7-0.2,4.5-1.1,9-2.1l9.1-2.2l-0.1-2.7c-0.3-11.9-5-18.2-14.2-19.2c-0.2,0-0.5,0-0.7-0.1c-0.2,0-0.4,0-0.6,0c0,0,0,0,0,0
		c-0.3,0-0.6,0-0.9,0c-0.7,0-1.4,0-2.1,0c0,0,0,0-0.1,0c-0.2,0-0.5,0-0.7,0c-0.2,0-0.4,0-0.6,0c-22.9,2.1-34.4,14.2-35.5,37.7
		c0,0.4,0,0.9,0,1.2c0,0.1,0,0.1,0,0.1c0,1.3-0.1,2.6,0,3.9c0-0.1,0-0.1,0,0.1c0,0.4,0,1.1,0,1.6c0,1,0.1,2,0.1,3.1c0,0,0,0,0,0.1
		c0,0.2,0,0.6,0,0.9c0,0.7,0.1,1.3,0.2,2c0,0,0,0,0,0c0,0.1,0,0.3,0,0.4c0,0.2,0,0.3,0,0.5C312.7,103.2,321.2,109.8,339.4,105.4z"/>
	<path class="st0" d="M102.5,309.5L102.5,309.5L102.5,309.5c0,0-0.1,0-0.1,0L102.5,309.5z"/>
	<path class="st0" d="M249.7,77c0.5-0.1,2.2-0.4,4.2-0.9c2.3-0.6,6.3-1.5,8.8-2.1l4.5-1.1l0.1-1c0-0.1,0-0.2,0-0.3l0.1-1.4l0,0.2
		l0-0.3c0.5-5.8,3.1-8.9,8.5-10c0.5-0.1,1-0.2,1.5-0.2c0,0,0.1,0,0.2,0c0.2,0,0.3,0,0.5,0c0,0,0,0,0,0c0.5,0,0.8,0,0.8,0
		c2.7,0.3,4.2,2.1,4.3,5.2c0,0,0,0,0,0.1c0,0.3,0,0.8,0,1.1c0,0.1,0,0.1,0,0.1c0,0.4-0.1,0.7-0.1,1.1c-0.2,1.4-0.6,2.6-1.3,3.7
		c0.1,0,0.1-0.1,0.1-0.1c0.1,0-0.3,0.4-0.8,0.9c-0.5,0.5-0.9,0.9-1,0.9c0,0,0,0,0,0c-2,1.7-5.4,3.3-11,5.7
		c-15.8,6.7-20.9,11.9-22.2,22.4c-1.5,12.5,4.2,21,13.9,21.8c0.2,0,0.4,0,0.4,0c0.7,0,1.4,0,2.1,0c0.1,0,0.2,0,0.4,0
		c1-0.1,2-0.2,3-0.4c7.9-1.6,14.1-5.9,17.4-11.8c0.4-0.7,0.7-1,0.7-0.9c0.1,0.2,0.4,1.1,0.7,2.1c1.2,3.6,1.5,3.9,2.2,3.7
		c0.4-0.1,4.2-1,8.5-2c8.7-2,8.3-1.9,7.7-2.8c-1.1-1.8-1.6-3.6-1.9-9.5c0,0.1,0,0.1,0,0.2c0,0.2-0.1,0.1-0.1-0.3
		c0-0.4,0-0.6,0.1-0.5c-0.2-4.3-0.3-10.5-0.3-20.1c-0.1-15.8-0.1-20.9-0.7-23.6c-0.2-0.7-0.4-1.3-0.6-1.9c-0.3-0.6-0.6-1.1-0.9-1.9
		c-1.9-3.6-5.9-6.1-10.7-6.9c-1.5-0.1-3.4-0.2-5-0.2c-0.3,0-0.6,0.1-0.9,0.1c-0.3,0-1.3,0.2-2.2,0.3c-14.5,1.9-26,9.2-29.5,18.7
		c-0.6,1.7-1.3,5.5-1.7,8.3c0,0.3,0,0.6,0,0.9c0,0.2-0.1,0.2-0.1-0.1c0,0.2,0,0.5-0.1,0.7C249.5,76,249.6,76.7,249.7,77z
		 M283.1,88.9c0,2,0,3.5-0.1,4.6c0,0,0,0,0,0c0,0.2,0,0.7,0,0.9c0,0.1,0,0.1-0.1,0c0,0.6-0.1,1.2-0.2,1.6
		c-1.6,9-10.5,13.4-14.9,10.3c0,0,0,0.1,0,0.1c0,0-0.3-0.2-0.6-0.6c0,0,0,0-0.1-0.1c0,0,0,0-0.1-0.1c-0.4-0.4-0.6-0.7-0.6-0.7
		c0,0,0,0,0,0c-0.8-1.1-1.3-2.7-1.2-4.7c0-5.5,2.3-8.4,9.8-12.3c1.9-1,4.4-2.4,5.6-3.2c1.2-0.8,2.2-1.4,2.3-1.4c0,0,0,0,0,0.1
		c0.1,0,0.1-0.1,0.1-0.1c0.1,0,0.1,2.4,0,5.1C283.1,88.7,283.1,88.8,283.1,88.9z"/>
	<path class="st0" d="M349.7,12v0.1v7.2h1.1h0.1h1l0.1-3.1l0,0c0-1.5,0-2.8,0-3c0,0,0,0,0,0l0-0.1l0.3,0c0.2,0,0.4,0,0.6,0l0,0
		c0.5,0,0.9,0,1.2,0l0.4,0l-0.2,0c0.9,0.2,1.4,0.7,1.6,1.9c0,0,0,0,0,0.1c0,0.2,0,0.4,0,0.7c0,0.2,0,0.5,0,0.7
		c0,2.6,0.2,2.9,1.6,2.9c0,0,0.1,0,0.1,0c0.6,0,0.9,0,1,0l-0.3-0.7c-0.1-0.4-0.3-1.5-0.3-2.5c0-2.2-0.4-3.2-1.3-3.7l-0.7-0.3
		l0.7-0.4c0.9-0.5,1.5-1.9,1.5-3.2c-0.1-1-0.4-2-1-2.7c-0.7-0.7-1.6-0.8-4.5-0.8h-3.3V12z M352,6.5L352,6.5l0.1,0V6.4l0.7,0.1h0.6
		c1.4,0,1.6,0,2.1,0.6c0,0,0.1,0.1,0.1,0.1c0,0,0,0,0,0c0.9,1,0.9,2.2,0.2,3.1c-0.2,0.3-0.4,0.5-0.8,0.6c-0.3,0.2-0.6,0.3-1,0.3
		l0.4,0l-0.5,0c-0.2,0-0.5,0.1-0.8,0l-1.1-0.1L352,8.8L352,6.5L352,6.5L352,6.5z"/>
	<path class="st0" d="M57.3,108.3C57.3,108.3,57.3,108.3,57.3,108.3c0,0.1,0,0.2,0,0.2c0,0,0-0.2-0.1-0.5c-0.1-0.5-0.1-1.5-0.1-3.4
		c0-3-0.1-3.8-0.3-3.7c-0.1,0.1-4.2,1-9,2.2l-8.8,2.1V130c0,23.6,0,24.9,0.3,24.7c4.9-2.1,12-1.2,16.9,2.1l1.5,1
		c0.2-0.1,0.2-1,0.3-5.3l0-8.8c0-0.6,0-1.3,0-2l0-16.4l0,5.3c0.1-8.5,0.3-8.9,1.1-11.2c3-8.7,12.7-11.8,15.3-4.9l0.5,1.2l0,1.3
		c0,0,0,0,0,0.1c0,0.2,0,0.5,0,0.7c0,0,0,0.1,0,0.1l0,3.5c0.1,3.9,0.1,10.3,0.1,20.9c0,10.4,0,17.5,0.1,21c0,1.8,0.1,2.5,0.2,2.5
		c0.1,0,4.5-1.1,9.6-2.3l9.4-2.2l0-12.7l0-14.2c-0.1-29.2,0-28.1-1.2-31.6c-1.8-5.6-5.7-8.6-11.3-8.8c-0.4,0-1,0-1.5,0
		c-1.3,0-2.6,0.2-4.1,0.5c-7.9,1.7-14.7,6.5-18.2,12.9C57.7,108,57.5,108.3,57.3,108.3L57.3,108.3L57.3,108.3z"/>
	<path class="st0" d="M345.4,19.8c0.1,0.1,0.2,0.2,0.4,0.4c0.1,0.1,0.1,0.1,0.2,0.2c0.8,0.8,1.8,1.5,2.9,2
		c9.3,4.6,19.7-4.4,16.4-14.2c-1.5-4.7-6-7.9-10.7-8.1c-0.4,0-1,0-1.3,0c0,0,0,0,0,0c-0.7,0-1.5,0.2-2.2,0.4
		C342.1,2.8,339.8,13.7,345.4,19.8z M356.8,1.8c1.5,0.5,2.9,1.2,4,2.1c-0.1-0.1-0.2-0.2-0.2-0.2c0.1,0,0.5,0.4,0.9,0.8
		c0.4,0.4,0.7,0.8,0.7,0.8c0,0,0,0-0.1-0.1c1.5,1.7,2.3,3.9,2.4,6.1c0,0,0,0,0,0.1c0,0.2,0,0.7,0,0.9c0,0.1,0,0.1-0.1,0.1
		c-0.1,2.3-1.1,4.7-2.9,6.6c-1.9,2-4.3,3-6.7,3.2c0,0,0,0-0.1,0c-0.3,0-0.8,0-1.2,0c-0.1,0-0.2,0-0.2,0c-5-0.4-9.6-4.4-9.6-10.4
		C343.7,5,350.4-0.1,356.8,1.8z"/>
	<path class="st0" d="M245.1,58.1c0-1.5-0.1-2.3-0.2-2.6c0-0.1-0.1-0.2-0.1-0.2c0,0-0.1,0-0.1,0l-1.2,0c-0.3,0-0.5,0-0.8,0
		c-0.7,0.1-1.5,0.2-2.3,0.4c-5.9,1.5-11.4,6.4-14.8,13l-0.8,1.6l0-4.4l0-0.2l-0.1-4.2c0,0,0-0.1,0-0.1c-0.1,0-3.9,0.9-8.5,2
		c-4.6,1.1-8.6,2-8.9,2.1l-0.4,0.1v34.5c0,22.3,0,31.2,0.2,33.7c0,0.5,0.1,0.7,0.1,0.8c0.3,0,4.5-1,9.5-2.1l9-2.1
		c0.1-0.1,0.2-0.3,0.2-1.2v-18.9c0-9.6,0-15.3,0.1-19.1c0,0,0,0,0,0c0,0.4-0.1,0.1-0.1-0.5c0-0.7,0-1,0.1-0.7c0,0.1,0,0.3,0,0.5
		c0.2-4.8,0.7-6,1.8-8.2c0.7-1.5,1.8-2.9,3.2-4.1c0.1-0.1,0.1-0.1,0.2-0.2c0.2-0.2,0.4-0.3,0.6-0.5c0.1-0.1,0.2-0.2,0.4-0.3
		c3.3-2.6,7.8-4.2,12.2-4.2l0.7,0l0.1,0v-8.8C245.1,61.4,245.1,59.5,245.1,58.1z M230.5,78.6l-1.1,1L230.5,78.6c0.9-1,1-1.2,1-1.1
		C231.5,77.5,231.1,78,230.5,78.6z"/>
	<path class="st0" d="M0.7,191.1c-0.4,1.1-0.6,2.3-0.6,3.4c0,0.2,0,0.4,0,0.6c0.2,5.6,4.8,10.5,10.9,10.5c1.6,0,16.1-3.1,16.9-3.6
		c0.1,0,0.1-0.5,0.1-1.3c0-1.7,0-4.8,0-8.4c0-1.6,0-2.9,0-4c-0.1-3.3-0.2-5.9-0.3-5.9c-0.2,0-6.1,1.4-13.1,3
		C0.2,189,1.7,188.4,0.7,191.1z"/>
	<path class="st0" d="M0,220c0-0.1,0-0.2,0-0.3c0,0,0,0.1,0,0.1C0,219.9,0,219.9,0,220C0,220,0,220,0,220z"/>
	<path class="st0" d="M27.9,65.9c-0.1,0-4.6,1.1-10,2.3l-9.8,2.3V126c0,30.5,0,55.5,0,55.4c0,0,4.5-1.1,10-2.4l9.9-2.3l0-25.9
		c0-8.6,0-18.7,0-29.6c0-16.3,0-31,0-41.2C28.1,69.3,28,65.9,27.9,65.9z"/>
	<path class="st0" d="M0.1,244.8c0,0.3,0,0.9,0,1.3c0.4,5.4,4.9,10.4,10.9,10.4c1.6,0,16.1-3,16.9-3.6c0.1,0,0.1-0.5,0.1-1.3
		c0-1.7,0-4.8,0-8.4c0-1.6,0-2.9,0-4c-0.1-3.3-0.2-5.9-0.3-5.9c-0.2,0-6.1,1.4-13.1,3l-12.8,3L1.5,240c-0.3,0.4-0.5,0.9-0.7,1.3
		c0,0,0,0,0,0c-0.2,0.4-0.3,0.9-0.4,1.3c0,0,0,0.1,0,0.1C0.2,243.5,0.1,244.1,0.1,244.8C0.1,244.8,0.1,244.8,0.1,244.8z"/>
	<path class="st0" d="M131.7,152.1l-0.2-0.3c-2.3-2.8-3.2-6.1-3.5-17.7c0,0.1,0,0.3,0,0.4c0,1.6-0.1,0.3-0.1-2.7c0-0.3,0-0.5,0-0.8
		c-0.1-3.8-0.1-8.3-0.1-13.7V98.3l0.1,0c0,0,0-0.1,0-0.1c0,0,0,0,0,0l6.6-1.6l6.8-1.6l0.1-7c0-3.9,0-7,0-7c-0.1,0-12.8,3-13.2,3.1
		c-0.1,0-0.1,0-0.2-0.1c0,0.1,0,0.1,0,0.1c0,0,0-0.2-0.1-0.5c-0.1-0.7-0.1-2.6-0.1-7.2c0,0,0,0,0,0c0-4,0-6.5-0.1-7.4
		c-0.1-0.3-0.1-0.3-0.2-0.3c-0.2,0-3.7,0.8-7.8,1.8s-8.2,2-9.3,2.2l-1.7,0.4c-0.1,0.4-0.2,2.4-0.2,7.7V81v7.6v0.1l-4.6,1.1L99.3,91
		V98v7c0,0,0.1,0.1,0.1,0.1l0.4-0.1c1.8-0.4,8.1-1.9,8.4-2c0.1,0,0.1,0,0.1,0.1c0,0,0,0,0,0c0,0,0,0.1,0,0.3c0.1,1.1,0.1,5,0.1,17.4
		c0,22.6,0.2,27.3,1.7,33c0.7,2.6,1.2,3.5,1.7,3.4c0.3-0.1,17.2-4,19.5-4.6l0.3-0.1C131.8,152.4,131.8,152.3,131.7,152.1z"/>
	<path class="st0" d="M0,221c0.5,5.5,5.4,10.4,11.8,10c1.7-0.1,14.4-2.8,16.1-3.4c0.1,0,0.2-0.9,0.2-2.3c0-1.8,0-4.5,0-7.4
		c0-2.2,0-4,0-5.4c-0.1-2.6-0.2-4.6-0.3-4.6c-0.2,0-6.1,1.4-13.1,3.1l-12.8,3l-0.5,0.8c-0.6,1-1,2-1.2,3c-0.1,0.2-0.1,0.5-0.1,0.7
		c0,0.1,0,0.2,0,0.3c0,0.2,0,0.3,0,0.5c0,0,0,0,0,0.1c0,0.4,0,1,0,1.4C0.1,220.9,0.1,221,0,221z"/>
	<path class="st0" d="M183.8,71.4c-1.5-0.2-3.5-0.3-5.2-0.3c-0.3,0-0.6,0-0.9,0.1c0,0,0,0,0,0c-0.2,0-0.5,0-0.7,0
		c-20.2,2.2-31.1,13.8-33.1,35.3c-0.1,0.6-0.1,1.1-0.1,1.7c0,0,0,0.1,0,0.1c-0.1,1-0.1,1.9-0.2,2.9c0,0.4,0,0.8,0,1.2
		c0,0.1,0,0.2,0,0.2c0,0.4,0,0.8,0,1.2c0,1.9,0,3.8,0,5.5c0-0.1,0,0,0,0.1c0,0.3,0,0.9,0,1.2c0,0.8,0.1,1.5,0.1,2.2c0,0,0,0,0,0.1
		c0,0.2,0,0.4,0,0.6c0.1,0.9,0.2,1.7,0.3,2.6c1.7,11.8,7.1,18.4,16.1,19.6c1.1,0.1,2.3,0.2,3.6,0.2c0.6,0,1.2,0,1.8,0
		c1.7-0.1,3.5-0.4,5.3-0.7c14-2.9,23.3-10.3,26.5-20.7c0.4-1.5,0.8-3.5,1.1-5.3c0-0.1,0-0.2,0-0.3c0-0.1,0-0.1,0-0.2
		c0-0.3,0-0.4,0.1-0.4c0.1-1.1,0.1-2.2,0.1-3.3l-0.1-1.7c-0.2,0-0.5,0-1,0.1l-7.2,1.7c-4.5,1.1-8.4,2-8.6,2.1
		c-0.4,0.1-0.4,0.3-0.5,2.3c-0.2,3.2-0.9,5.7-2.4,7.5c0.1,0,0,0.2-0.6,0.7l-0.7,0.6l0.2-0.2c-1,0.9-2.3,1.6-3.8,2
		c-1.1,0.3-2.1,0.5-3,0.6c0,0-0.1,0-0.1,0c-0.4,0-0.9,0-1.3,0c-0.1,0-0.2,0-0.1,0c-1.3-0.1-2.3-0.6-3.2-1.4l0.3,0.4l-0.6-0.6
		c-0.4-0.3-0.7-0.6-0.7-0.7c0-0.1,0-0.1,0.1,0c-0.3-0.4-0.6-0.8-0.8-1.3c-1.2-2.4-2.2-9.6-1.9-12.2l0-0.7l0.3-0.1
		c0,0,0.1-0.1,0.1-0.1c0.2-0.1,8.5-2,18.5-4.3c10-2.3,18.1-4.3,18.1-4.3c0.1,0,0.1-0.3,0.2-0.8c0-0.1,0-0.6,0-1.4
		c0-1.3,0-1.9,0.1-1.3c0,0.3,0,0.7,0,1.2c0.1-3.1-0.1-8.7-0.4-12.4c-0.2-1.9-0.5-3.7-0.9-5.2C196.3,77.6,191.1,72.7,183.8,71.4z
		 M172.2,100.1c-5,1.2-9.3,2.2-9.4,2.3c0,0,0,0,0,0c0,0,0,0,0,0c-0.1,0-0.2-0.4-0.1-1c0-0.4,0-0.6,0.1-0.7c0.1-2,0.6-5.3,1.2-7.1
		c1.2-4,3.9-7.2,7-8.3c2.3-0.8,5.5-0.9,6.9-0.1c2.2,1.1,3.2,3.3,3.5,7.7c0-0.3,0-0.3,0.1-0.1c0,0.2,0,0.7,0,0.9c0,0.1,0,0.1,0,0.1
		c0,0.3,0,0.6,0,0.9l0.1,3.3L172.2,100.1z"/>
</g>
</svg>
