<?xml version="1.0" encoding="utf-8"?>
<!-- Generator: Adobe Illustrator 24.2.1, SVG Export Plug-In . SVG Version: 6.00 Build 0)  -->
<svg version="1.1" id="Layer_1" xmlns="http://www.w3.org/2000/svg" xmlns:xlink="http://www.w3.org/1999/xlink" x="0px" y="0px"
	 viewBox="0 0 106 36" style="enable-background:new 0 0 106 36;" xml:space="preserve">
<style type="text/css">
	.st0{fill-rule:evenodd;clip-rule:evenodd;fill:#92938D;}
</style>
<desc>Created with Sketch.</desc>
<g>
	<path id="Filter" class="st0" d="M14.8,8.1L12,18.6l-2.3,0.9l-0.8,3l2.3-0.8L9.7,28h16.2l1-4H17l1.3-4.8l2.6-1.2l0.8-3l-2.5,0.9
		l2-7.8L14.8,8.1z M17.9,0c9.8,0,17.9,8.1,17.9,18s-8,18-17.9,18S0,27.9,0,18S8,0,17.9,0L17.9,0z M48.7,11.3c0,0.6-0.5,1.2-1.3,1.3
		c-0.6,0-1.1-0.5-1.3-1.3c0-0.6,0.5-1.2,1.3-1.3C48.2,10.2,48.7,10.7,48.7,11.3L48.7,11.3z M94.3,11.3c0,0.6-0.5,1.2-1.3,1.3
		c-0.6,0-1.1-0.5-1.3-1.3c0-0.6,0.5-1.2,1.3-1.3C93.8,10.2,94.3,10.7,94.3,11.3L94.3,11.3z M42.3,9.4h1.5v17h-1.5V9.4z M55.6,15.4
		v1.4h-2.3v9.5h-1.6v-9.5h-1.9v-1.5h1.9v-4.1h1.5v4.1L55.6,15.4L55.6,15.4L55.6,15.4z M60.4,15.3c1.5-0.4,3.3-0.1,4.5,0.8
		c1.6,1.3,2.4,3.5,2,5.4h-9.2c0.1,1,0.6,2.1,1.5,2.6c1.8,1.3,4.4,0.9,5.7-0.8l0.3-0.3c0.5,0.1,1,0.3,1.5,0.4
		c-0.5,1.2-1.5,2.1-2.6,2.6c-1.4,0.6-3,0.6-4.4,0.1c-1.4-0.5-2.4-1.5-3-3C56,21.5,56,19.7,56.8,18C57.5,16.7,58.9,15.7,60.4,15.3
		L60.4,15.3z M58.9,17.9c-0.6,0.6-1,1.4-1.1,2.3h7.6c-0.1-1.4-1-2.7-2.4-3.2C61.6,16.5,60.1,16.8,58.9,17.9L58.9,17.9z M69.8,17
		c2-2.3,5.9-2.4,8.2-0.4l-1,1.3c-1.5-1.4-4-1.4-5.7,0c-1.9,1.5-1.8,4.9,0.1,6.3c1.5,1.3,3.9,1.2,5.4-0.1l1.1,1.2
		c-2.1,1.9-5.7,2.1-7.8,0.1C68,23.1,67.8,19.3,69.8,17L69.8,17z M98.2,17.1c0.6-1.3,2.1-1.9,3.7-1.9c0.6,0,1.4,0.1,1.9,0.4
		c1.1,0.5,1.8,1.4,2,2.6c0.1,0.6,0.3,1.3,0.3,1.9v6.3h-1.5v-6.3c0-0.9-0.1-1.9-0.8-2.6s-1.6-0.8-2.5-0.6c-1,0.1-2,0.8-2.4,1.7
		c-0.3,0.5-0.4,1.3-0.4,1.9v6h-1.5V15.4h1.5L98.2,17.1z M83.3,15.3c1.5-0.3,3.3,0,4.5,0.8c1.3,0.8,2,2.2,2.3,3.6
		c0.3,1.5,0,3.1-0.9,4.4c-1,1.5-2.8,2.4-4.7,2.4c-1.5,0.1-3.2-0.5-4.2-1.7c-1.8-1.7-2-4.6-0.9-6.8C80.3,16.6,81.6,15.6,83.3,15.3
		L83.3,15.3z M83.4,17c-1.3,0.3-2.4,1.3-2.8,2.4c-0.6,1.7-0.1,3.9,1.4,4.9c1.8,1.3,4.5,1,5.8-0.8c0.9-1.3,1-3.1,0.3-4.5
		C87.3,17.1,85.2,16.5,83.4,17L83.4,17z M46.7,26.4V15.4h1.5v11.1h-1.5V26.4z M93.9,26.4h-1.5V15.3h1.5V26.4z"/>
</g>
</svg>
