<?xml version="1.0" encoding="utf-8"?>
<!-- Generator: Adobe Illustrator 24.2.1, SVG Export Plug-In . SVG Version: 6.00 Build 0)  -->
<svg version="1.1" id="Layer_1" xmlns="http://www.w3.org/2000/svg" xmlns:xlink="http://www.w3.org/1999/xlink" x="0px" y="0px"
	 viewBox="0 0 148 26" style="enable-background:new 0 0 148 26;" xml:space="preserve">
<style type="text/css">
	.st0{fill:#92938D;}
</style>
<path class="st0" d="M64.1,18.7v-5.4c0-2.1-1.3-3.5-3.4-3.5c-1.2-0.1-2.4,0.5-3,1.5c-0.7-1-1.7-1.6-2.8-1.5c-1,0-2,0.4-2.5,1.3v-1.1
	h-1.8v8.7h2V14c0-1.5,0.9-2.3,2.2-2.3s1.8,0.9,1.8,2.3v4.8h2V14c0-1.5,0.9-2.3,2.2-2.3s2,0.9,2,2.3v4.8H64.1L64.1,18.7z M92.2,10.1
	h-3V7.5h-2v2.6h-1.7v1.7h1.7v3.9c0,2.1,0.8,3.3,3,3.3c0.9,0,1.6-0.2,2.4-0.7L92,16.7c-0.5,0.3-1.1,0.4-1.6,0.5c-1,0-1.3-0.5-1.3-1.4
	v-3.9h3V10.1L92.2,10.1z M108.2,9.9c-1,0-1.8,0.4-2.3,1.3v-1.1h-1.8v8.7h1.8v-4.9c0-1.4,0.7-2.3,1.8-2.3c0.4,0,0.8,0.1,1.2,0.2
	l0.5-1.7C109.1,10,108.7,9.9,108.2,9.9L108.2,9.9z M84,10.8c-1.1-0.7-2.3-1-3.6-0.9c-2.2,0-3.6,1.1-3.6,2.8c0,1.4,1.1,2.3,3,2.6
	l0.9,0.1c1.1,0.1,1.5,0.4,1.5,0.9c0,0.7-0.7,1.1-2,1.1c-1.1,0-2.1-0.3-2.9-0.9l-0.9,1.5c1.1,0.8,2.4,1.2,3.8,1.1
	c2.5,0,3.9-1.2,3.9-2.8c0-1.5-1.2-2.3-3-2.6l-0.9-0.1c-0.9-0.1-1.5-0.3-1.5-0.9c0-0.7,0.7-1,1.6-1c1,0,1.8,0.2,2.7,0.8L84,10.8z
	 M134.3,9.9c-1,0-1.8,0.4-2.3,1.3v-1.1h-1.8v8.7h1.8v-4.9c0-1.4,0.7-2.3,1.8-2.3c0.4,0,0.8,0.1,1.2,0.2l0.5-1.7
	C135.2,10,134.8,9.9,134.3,9.9L134.3,9.9z M110.1,14.4c0,2.6,1.8,4.6,4.7,4.6c1.1,0.1,2.3-0.3,3.2-1.1l-0.9-1.5
	c-0.7,0.5-1.4,0.8-2.3,0.8c-1.5,0-2.6-1.1-2.6-2.8c0-1.6,1.1-2.7,2.6-2.8c0.9,0,1.6,0.3,2.3,0.8l0.9-1.5c-0.9-0.8-2-1.1-3.2-1.1
	C111.9,9.9,110.1,11.8,110.1,14.4L110.1,14.4z M127.7,14.4v-4.3h-1.8v1.1c-0.7-0.9-1.6-1.3-2.7-1.3c-2.4,0-4.3,2-4.3,4.6
	s2,4.6,4.3,4.6c1.1,0,2.1-0.4,2.7-1.3v1.1h1.8V14.4z M120.7,14.4c0-1.5,1-2.8,2.6-2.8c1.5,0,2.6,1.2,2.6,2.8s-1.1,2.8-2.6,2.8
	C121.7,17.1,120.7,15.9,120.7,14.4z M98,9.9c-2.5,0-4.3,1.8-4.3,4.6s1.8,4.6,4.5,4.6c1.3,0,2.6-0.4,3.6-1.2l-1-1.4
	c-0.8,0.5-1.6,0.9-2.5,0.9c-1.2,0-2.3-0.5-2.6-2.2h6.4c0-0.2,0-0.4,0-0.8C102,11.7,100.4,9.9,98,9.9L98,9.9z M98,11.6
	c1.2,0,2,0.8,2.2,2.1h-4.5C95.8,12.3,96.6,11.6,98,11.6z M145.2,14.4V6.6h-1.8v4.6c-0.7-0.9-1.6-1.3-2.7-1.3c-2.4,0-4.3,2-4.3,4.6
	s2,4.6,4.3,4.6c1.1,0,2.1-0.4,2.7-1.3v1.1h1.8V14.4z M147.4,17.9c0.1,0,0.1,0,0.2,0c0.1,0,0.1,0.1,0.2,0.1c0,0,0.1,0.1,0.1,0.2
	c0.1,0.1,0.1,0.3,0,0.4c0,0.1-0.1,0.1-0.1,0.2c0,0-0.1,0.1-0.2,0.1c-0.1,0-0.1,0-0.2,0c-0.2,0-0.4-0.1-0.5-0.3
	c-0.1-0.1-0.1-0.3,0-0.4s0.2-0.2,0.3-0.3C147.3,17.9,147.3,17.9,147.4,17.9L147.4,17.9z M147.4,18.8c0.1,0,0.1,0,0.2,0
	c0,0,0.1,0,0.1-0.1c0.2-0.2,0.2-0.4,0-0.7l-0.1-0.1c0,0-0.1,0-0.2,0c-0.1,0-0.1,0-0.2,0c-0.2,0.1-0.3,0.3-0.2,0.5c0,0,0,0.1,0.1,0.1
	l0.1,0.1C147.3,18.8,147.3,18.8,147.4,18.8L147.4,18.8z M147.4,18.2h0.1c0,0,0.1,0.1,0,0.1v0.1h-0.1l0.2,0.2h-0.1l-0.1-0.2h-0.1v0.2
	h-0.1v-0.5L147.4,18.2z M147.3,18.3v0.1h0.1c0,0,0,0,0.1,0l0,0l0,0C147.4,18.4,147.4,18.4,147.3,18.3L147.3,18.3L147.3,18.3z
	 M138.1,14.4c0-1.5,1-2.8,2.6-2.8c1.5,0,2.6,1.2,2.6,2.8s-1.1,2.8-2.6,2.8C139.1,17.1,138.1,15.9,138.1,14.4z M74.7,14.4v-4.3h-1.8
	v1.1c-0.7-0.9-1.6-1.3-2.7-1.3c-2.4,0-4.3,2-4.3,4.6s2,4.6,4.3,4.6c1.1,0,2.1-0.4,2.7-1.3v1.1h1.8V14.4z M67.7,14.4
	c0-1.5,1-2.8,2.6-2.8c1.5,0,2.6,1.2,2.6,2.8s-1.1,2.8-2.6,2.8C68.7,17.1,67.7,15.9,67.7,14.4L67.7,14.4z"/>
<g>
	<path class="st0" d="M20.8,14.2v-0.4h0.2v-0.1h-0.4v0.1h0.1L20.8,14.2L20.8,14.2z M21.7,14.2v-0.5h-0.1l-0.2,0.4l-0.1-0.3h-0.1v0.5
		h0.1v-0.4l0.1,0.3h0.1l0.1-0.3L21.7,14.2L21.7,14.2z"/>
	<g>
		<path class="st0" d="M16.2,13c0,4,1.8,7.8,4.9,10.2l0,0c5.7-4.4,6.6-12.6,2.2-18.2c-0.7-0.8-1.4-1.5-2.2-2.2l0,0l0,0
			C18,5.2,16.2,9,16.2,13z"/>
		<path class="st0" d="M14.8,13c0-4.2,2-8.1,5.2-10.9C14.4-1.4,6.9-0.2,2.8,5C-1.7,10.6-0.7,18.8,5,23.2c4.3,3.5,10.3,3.7,14.9,0.8
			C16.7,21.1,14.8,17.1,14.8,13z"/>
		<path class="st0" d="M39.3,5C35.2-0.3,27.7-1.5,22.1,2c0.7,0.5,1.2,1.1,1.7,1.6c5.3,6.2,4.6,15-1.7,20.3c2.1,1.3,4.5,2.1,7,2.1
			c7.2,0,13-5.9,13-13C42.1,10.1,41.2,7.2,39.3,5z"/>
	</g>
</g>
</svg>
