<?xml version="1.0" encoding="utf-8"?>
<!-- Generator: Adobe Illustrator 24.2.1, SVG Export Plug-In . SVG Version: 6.00 Build 0)  -->
<svg version="1.1" id="Layer_1" xmlns="http://www.w3.org/2000/svg" xmlns:xlink="http://www.w3.org/1999/xlink" x="0px" y="0px"
	 viewBox="0 0 100 36" style="enable-background:new 0 0 100 36;" xml:space="preserve">
<style type="text/css">
	.st0{fill:#92938D;}
</style>
<path class="st0" d="M32.8,24.3c0,0.2-0.1,0.4-0.2,0.5c-0.1,0.1-0.3,0.2-0.5,0.2c-0.2,0-0.4-0.1-0.5-0.2c-0.1-0.1-0.2-0.3-0.2-0.5
	V11.8c0-0.2,0.1-0.4,0.2-0.5c0.1-0.1,0.3-0.2,0.5-0.2h3.7c0.9,0,1.7,0.2,2.4,0.6c0.8,0.4,1.3,0.9,1.7,1.6c0.4,0.7,0.6,1.4,0.6,2.3
	s-0.2,1.6-0.6,2.3c-0.4,0.7-0.9,1.2-1.7,1.6c-0.7,0.4-1.5,0.6-2.4,0.6h-3C32.8,20.1,32.8,24.3,32.8,24.3z M35.8,18.8
	c0.6,0,1.2-0.1,1.7-0.4c0.5-0.3,0.9-0.7,1.2-1.1c0.3-0.5,0.4-1,0.4-1.6c0-0.6-0.1-1.2-0.4-1.6c-0.3-0.5-0.6-0.9-1.2-1.2
	c-0.5-0.3-1-0.4-1.7-0.4h-3v6.3L35.8,18.8L35.8,18.8z"/>
<path class="st0" d="M42.8,15.9c0-0.2,0.1-0.4,0.2-0.5c0.1-0.1,0.3-0.2,0.5-0.2s0.4,0.1,0.5,0.2c0.1,0.1,0.2,0.3,0.2,0.5v8.4
	c0,0.2-0.1,0.4-0.2,0.5c-0.1,0.1-0.3,0.2-0.5,0.2s-0.4-0.1-0.5-0.2c-0.1-0.1-0.2-0.3-0.2-0.5V15.9z M43.6,11.4
	c0.3,0,0.5,0.1,0.7,0.2c0.2,0.2,0.3,0.4,0.3,0.7c0,0.3-0.1,0.5-0.3,0.7c-0.2,0.2-0.4,0.3-0.8,0.3c-0.3,0-0.5-0.1-0.8-0.3
	c-0.2-0.2-0.3-0.4-0.3-0.7c0-0.3,0.1-0.5,0.3-0.7C43.1,11.6,43.4,11.4,43.6,11.4z"/>
<path class="st0" d="M52.7,15.1c0.9,0,1.9,0.2,2.7,0.7c0.8,0.4,1.5,1,1.9,1.7c0.5,0.8,0.7,1.6,0.7,2.5v4.2c0,0.2-0.1,0.4-0.2,0.5
	c-0.1,0.1-0.3,0.2-0.5,0.2c-0.2,0-0.4-0.1-0.5-0.2c-0.1-0.1-0.2-0.3-0.2-0.5v-1.1c-0.4,0.6-1,1-1.6,1.4c-0.6,0.4-1.4,0.5-2.2,0.5
	c-0.9,0-1.8-0.2-2.6-0.7c-0.8-0.5-1.3-1-1.8-1.7c-0.4-0.8-0.6-1.6-0.6-2.5c0-0.9,0.2-1.7,0.6-2.5c0.5-0.8,1.1-1.4,1.9-1.7
	C50.8,15.3,51.7,15.1,52.7,15.1z M52.7,23.8c0.7,0,1.3-0.2,1.9-0.5s1-0.8,1.3-1.3c0.3-0.6,0.5-1.2,0.5-1.9s-0.2-1.3-0.5-1.9
	c-0.3-0.6-0.8-1-1.3-1.3c-0.6-0.4-1.2-0.5-1.9-0.5c-0.7,0-1.3,0.2-2,0.5c-0.6,0.4-1,0.8-1.3,1.3c-0.3,0.5-0.5,1.2-0.5,1.9
	c0,0.7,0.2,1.3,0.5,1.9c0.3,0.6,0.8,1,1.3,1.3C51.3,23.6,52,23.8,52.7,23.8z"/>
<path class="st0" d="M64.2,15.1c0.8,0,1.5,0.1,2.2,0.4c0.6,0.2,1.1,0.6,1.5,1.1c0.1,0.2,0.1,0.3,0.1,0.4c0,0.2-0.1,0.4-0.3,0.5
	c-0.1,0.1-0.2,0.1-0.3,0.1c-0.3,0-0.5-0.1-0.6-0.2c-0.6-0.7-1.5-1-2.5-1c-0.7,0-1.2,0.1-1.6,0.4c-0.4,0.2-0.6,0.6-0.6,1
	s0.2,0.8,0.6,1c0.4,0.2,1.1,0.5,2,0.6c1.3,0.2,2.3,0.6,2.8,1c0.6,0.5,0.9,1.1,0.9,1.7c0,0.5-0.2,1-0.5,1.4c-0.3,0.4-0.8,0.8-1.5,1
	c-0.6,0.2-1.3,0.4-2.1,0.4c-0.8,0-1.5-0.1-2.2-0.4c-0.7-0.2-1.3-0.6-1.7-1c-0.1-0.1-0.2-0.3-0.2-0.4c0-0.2,0.1-0.4,0.3-0.5
	c0.1-0.1,0.3-0.2,0.5-0.2c0.2,0,0.4,0.1,0.5,0.2c0.3,0.4,0.7,0.6,1.2,0.8c0.5,0.2,1,0.2,1.6,0.2c0.9,0,1.5-0.1,2-0.4
	c0.4-0.3,0.6-0.7,0.6-1.1c0-0.4-0.2-0.8-0.6-1.1c-0.4-0.3-1.1-0.5-2.1-0.7c-1.2-0.2-2.2-0.5-2.7-1c-0.6-0.5-0.9-1-0.9-1.7
	c0-0.9,0.3-1.5,1-2C62.3,15.4,63.1,15.1,64.2,15.1z"/>
<path class="st0" d="M75.2,23.6c0.2,0,0.3,0.1,0.5,0.2c0.1,0.1,0.2,0.3,0.2,0.5s-0.1,0.4-0.2,0.5c-0.1,0.1-0.3,0.2-0.6,0.2h-0.3
	c-0.6,0-1.3-0.2-1.8-0.5s-0.9-0.7-1.2-1.3c-0.3-0.5-0.4-1.1-0.4-1.7v-4.7h-1.2c-0.2,0-0.3-0.1-0.5-0.2c-0.1-0.1-0.2-0.2-0.2-0.4
	s0.1-0.4,0.2-0.4c0.1-0.1,0.3-0.2,0.5-0.2h1.2v-2.8c0-0.2,0.1-0.4,0.2-0.5c0.1-0.1,0.3-0.2,0.5-0.2s0.4,0.1,0.5,0.2
	c0.1,0.1,0.2,0.3,0.2,0.5v2.8h2.2c0.2,0,0.3,0.1,0.5,0.2c0.1,0.1,0.2,0.2,0.2,0.4s-0.1,0.3-0.2,0.4c-0.1,0.1-0.3,0.2-0.5,0.2h-2.2
	v4.7c0,0.6,0.2,1.1,0.6,1.4c0.4,0.4,0.9,0.6,1.5,0.6h0.4L75.2,23.6L75.2,23.6z"/>
<path class="st0" d="M82.9,15.1c0.5,0,0.9,0.1,1.2,0.2c0.3,0.1,0.5,0.4,0.5,0.5c0,0.1,0,0.1,0,0.2c-0.1,0.2-0.1,0.3-0.3,0.4
	c-0.1,0.1-0.3,0.1-0.4,0.1c-0.1,0-0.3,0-0.6-0.1c-0.1,0-0.3,0-0.4,0c-0.9,0-1.7,0.2-2.3,0.7c-0.6,0.5-0.9,1.1-0.9,1.9v5.3
	c0,0.2-0.1,0.4-0.2,0.5C79.4,24.9,79.2,25,79,25s-0.4-0.1-0.5-0.2c-0.1-0.1-0.2-0.3-0.2-0.5v-8.4c0-0.2,0.1-0.4,0.2-0.5
	c0.1-0.1,0.3-0.2,0.5-0.2s0.4,0.1,0.5,0.2c0.1,0.1,0.2,0.3,0.2,0.5v0.8c0.3-0.5,0.8-0.9,1.4-1.2C81.6,15.3,82.2,15.1,82.9,15.1z"/>
<path class="st0" d="M87.2,15.9c0-0.2,0.1-0.4,0.2-0.5c0.1-0.1,0.3-0.2,0.5-0.2s0.4,0.1,0.5,0.2c0.1,0.1,0.2,0.3,0.2,0.5v8.4
	c0,0.2-0.1,0.4-0.2,0.5c-0.1,0.1-0.3,0.2-0.5,0.2s-0.4-0.1-0.5-0.2c-0.1-0.1-0.2-0.3-0.2-0.5V15.9z M87.8,11.4
	c0.3,0,0.5,0.1,0.7,0.2c0.2,0.2,0.3,0.4,0.3,0.7c0,0.3-0.1,0.5-0.3,0.7c-0.2,0.2-0.4,0.3-0.8,0.3c-0.3,0-0.5-0.1-0.8-0.3
	c-0.2-0.2-0.3-0.4-0.3-0.7c0-0.3,0.1-0.5,0.3-0.7C87.3,11.6,87.6,11.4,87.8,11.4z"/>
<path class="st0" d="M99.8,23.9c0.1,0.2,0.2,0.4,0.2,0.5c0,0.1-0.1,0.3-0.2,0.4c-0.1,0.1-0.3,0.2-0.4,0.2c-0.1,0-0.3-0.1-0.4-0.1
	c-0.1-0.1-0.2-0.1-0.3-0.2l-3-3.7l-3.2,3.8c-0.1,0.1-0.3,0.2-0.5,0.2c-0.2,0-0.3-0.1-0.5-0.2c-0.1-0.1-0.2-0.2-0.2-0.4
	s0.1-0.4,0.2-0.5l3.2-3.8l-3-3.7c-0.1-0.1-0.2-0.3-0.2-0.5c0-0.2,0.1-0.4,0.2-0.5c0.1-0.1,0.3-0.2,0.5-0.2c0.3,0,0.4,0.1,0.5,0.2
	l3,3.7l3-3.6c0.2-0.2,0.4-0.4,0.6-0.4c0.2,0,0.3,0.1,0.5,0.2c0.1,0.1,0.2,0.2,0.2,0.4c0,0.2-0.1,0.4-0.2,0.5l-3.1,3.7L99.8,23.9z"/>
<path class="st0" d="M17.7,14.7c-0.1,0-0.1,0.1-0.2,0.1c-0.8,0.3-1.4,0.8-1.8,1.5c-0.4,0.7-0.5,1.4-0.4,2.3c0,0.1,0.1,0.2,0.1,0.3
	c0.1,0.1,0.1,0.2,0.1,0.3c0.3,0.7,0.8,1.3,1.3,1.7c0.1,0.1,0.1,0.1,0.2,0.1c0.1,0.1,0.2,0.1,0.3,0.2c0.1,0.1,0.2,0.1,0.3,0.1
	c0.4,0.2,0.9,0.2,1.3,0.2c0.1,0,0.1,0,0.1,0l0,0c0.5-0.1,0.9-0.1,1.4-0.3c0.8-0.4,1.5-1,1.8-1.7c0.3-0.8,0.4-1.6,0.2-2.5
	c-0.3-0.8-0.8-1.5-1.6-1.9c-0.8-0.4-1.6-0.7-2.5-0.5c-0.1,0-0.1,0-0.2,0.1C18,14.6,17.8,14.7,17.7,14.7z"/>
<g>
	<g>
		<path class="st0" d="M5.3,11.1c0.4,1,1,1.8,1.7,2.6v0.1c0,0,0,0.1,0.1,0.1c0.3,0.3,0.5,0.5,0.8,0.8c1.8,1.3,3.9,2.2,6.3,2.4
			c0.2-0.9,0.8-1.7,1.5-2.3c-1.3-1.9-2-4-2.2-6c-1.9-1.4-4.8-2.2-8.9-2.2C4.5,8.1,4.7,9.6,5.3,11.1L5.3,11.1z"/>
		<path class="st0" d="M15.6,21.4c-2.5,1.5-5.1,2.3-7.7,2.3H7.8c-1.2,1.7-1.9,4.1-2.2,7.2c1.8,0.2,3.4,0.2,4.9-0.2
			c1.3-0.4,2.5-1,3.5-1.9v-0.1l0.3-0.2h0.1c1.6-1.6,2.7-3.7,3.2-6.1C16.8,22.2,16.1,21.9,15.6,21.4z"/>
		<path class="st0" d="M7.8,22.5c2.4-0.1,4.7-0.7,6.9-2c-0.4-0.7-0.6-1.4-0.7-2.2c-2.7-0.4-5.1-1.3-7-2.7c-0.3-0.2-0.5-0.4-0.8-0.7
			c-1.9,0.5-4,1.6-6.3,3.4c0.9,1.3,2.2,2.4,3.6,3.2c1.2,0.7,2.5,1,3.9,1.1L7.8,22.5L7.8,22.5z"/>
		<path class="st0" d="M22.6,3.4C21.8,2.1,20.7,1,19.2,0l0,0c-1.5,1-2.6,2.2-3.4,3.4c-0.8,1.3-1.1,2.6-1.2,4.1c0,0.2,0,0.5,0.1,0.8
			v0.1c0.2,1.9,0.8,3.8,2,5.6c0.8-0.4,1.6-0.5,2.4-0.5c0.8,0.1,1.6,0.3,2.3,0.7l0,0c1.3-1.9,2-3.8,2.2-5.8V8.3
			c0.1-0.2,0.1-0.5,0.1-0.8C23.7,6.1,23.3,4.6,22.6,3.4z"/>
		<path class="st0" d="M23.3,27.8L23.3,27.8c-0.3-1.9-0.9-3.8-2.1-5.6c-0.7,0.4-1.5,0.5-2.2,0.5c-0.1,0-0.1,0-0.1,0
			c-0.6,2.7-1.8,4.9-3.5,6.7l0,0l0,0l0,0l0,0l0,0l0,0l0,0l0,0c0.4,2,1.6,4.2,3.7,6.7c1.3-0.9,2.5-2.1,3.3-3.5c0.6-1,0.9-2.1,1.1-3.2
			c-0.1-0.1-0.1-0.2-0.1-0.2C23.4,28.7,23.4,28.2,23.3,27.8z"/>
	</g>
</g>
</svg>
