<?xml version="1.0" encoding="utf-8"?>
<!-- Generator: Adobe Illustrator 24.2.1, SVG Export Plug-In . SVG Version: 6.00 Build 0)  -->
<svg version="1.1" id="Layer_1" xmlns="http://www.w3.org/2000/svg" xmlns:xlink="http://www.w3.org/1999/xlink" x="0px" y="0px"
	 viewBox="0 0 57 20" style="enable-background:new 0 0 57 20;" xml:space="preserve">
<style type="text/css">
	.st0{fill:#92938D;}
</style>
<desc>Created with sketchtool.</desc>
<g id="Group-33" transform="translate(40.603927, 39.884718)">
	<path id="Shape" class="st0" d="M5.2-37.4l4.7-0.9v18.7H5.2V-37.4z M12.1-37.4v17.8h4.8v-18.7L12.1-37.4z M-1.5-19.5h4.7v-13.7
		h-4.7V-19.5z M-32.9-31.3c-0.6,0-2-0.1-2-1.4c0-1.5,2-1.5,2.8-1.5c1.3,0,3,0.4,4.2,0.8c0,0,0.7,0.3,1.3,0.5l0.1,0V-33v-4.2l-0.1,0
		c-1.5-0.5-3.1-1-6.2-1c-5.4,0-7.2,3.2-7.2,5.9c0,1.6,0.7,5.3,6.8,5.7c0.5,0,1.9,0.1,1.9,1.4c0,1.1-1.1,1.7-3,1.7
		c-2.1,0-4.1-0.5-5.3-1.1v4.4c1.8,0.5,3.9,0.7,6.3,0.7c5.2,0,7.6-3,7.6-6C-25.9-28.8-28.5-31-32.9-31.3z M-4.2-33.4
		c-4.4,0.2-6.6,2.2-6.6,6.2v7.7H-6v-6.3c0-2.4,0.3-3.4,3.1-3.5v-4C-3.4-33.5-4.2-33.4-4.2-33.4z M-17.1-33.2
		c-0.1,0.3-0.9,2.5-2.7,4.8v-9.8l-4.9,1v17.7h4.9V-25c1.4,2.2,2.1,5.5,2.1,5.5h5.9c-0.6-2.5-3.1-7.1-3.1-7.1c2.3-3,3.3-6.1,3.4-6.6
		L-17.1-33.2L-17.1-33.2z M0.8-34.5c1.3,0,2.3-1.1,2.3-2.4c0-1.3-1.1-2.4-2.3-2.4s-2.3,1.1-2.3,2.4C-1.5-35.6-0.5-34.5,0.8-34.5z"/>
</g>
</svg>
