<?xml version="1.0" encoding="utf-8"?>
<!-- Generator: Adobe Illustrator 24.2.1, SVG Export Plug-In . SVG Version: 6.00 Build 0)  -->
<svg version="1.1" id="Layer_1" xmlns="http://www.w3.org/2000/svg" xmlns:xlink="http://www.w3.org/1999/xlink" x="0px" y="0px"
	 viewBox="0 0 56 36" style="enable-background:new 0 0 56 36;" xml:space="preserve">
<style type="text/css">
	.st0{fill:#92938D;}
</style>
<rect x="1.9" y="1.8" class="st0" width="52.4" height="4.6"/>
<rect x="1.9" y="29.5" class="st0" width="52.4" height="4.6"/>
<path class="st0" d="M56,0.6V0l0,0h-0.6H0v0.6l0,0v34.9l0,0V36h56v-0.6l0,0V0.6L56,0.6z M55.4,35.4H0.6V0.6h55
	C55.4,0.6,55.4,35.4,55.4,35.4z"/>
<path class="st0" d="M45.7,11.6h-2.8c-0.7,0-1.2,0.3-1.4,0.9l-5,11.8H40l0.7-1.9H45l0.3,1.9h3.2L45.7,11.6z M41.7,19.8l1.8-4.8
	l1.1,4.8H41.7z"/>
<polygon class="st0" points="27.5,11.6 24.3,11.6 21.5,24.4 24.7,24.4 "/>
<path class="st0" d="M36.6,20.1c0-3.4-4.7-3.6-4.7-5.1c0-0.4,0.5-0.9,1.4-1.1c0.5-0.1,1.9-0.1,3.3,0.6l0.6-2.7
	c-0.9-0.3-1.9-0.7-3.3-0.7c-3.3,0-5.6,1.8-5.7,4.3c0,1.8,1.6,2.9,2.9,3.5c1.3,0.6,1.8,1,1.8,1.6c0,0.9-1,1.2-2,1.2
	c-1.6,0-2.7-0.5-3.4-0.8L27,23.7c0.8,0.3,2.2,0.7,3.7,0.7C34.3,24.5,36.6,22.8,36.6,20.1z"/>
<path class="st0" d="M15.8,20.3l-1.4-7.4c-0.1-0.8-0.8-1.2-1.5-1.2H7.1L7,11.9c1.2,0.2,2.5,0.7,3.3,1.1c0.5,0.2,0.6,0.4,0.8,1.1
	l2.7,10.2h3.5l5.4-12.8h-3.5L15.8,20.3z"/>
</svg>
