<?xml version="1.0" encoding="utf-8"?>
<!-- Generator: Adobe Illustrator 24.2.1, SVG Export Plug-In . SVG Version: 6.00 Build 0)  -->
<svg version="1.1" id="Layer_1" xmlns="http://www.w3.org/2000/svg" xmlns:xlink="http://www.w3.org/1999/xlink" x="0px" y="0px"
	 viewBox="0 0 136 26" style="enable-background:new 0 0 136 26;" xml:space="preserve">
<style type="text/css">
	.st0{fill:#92938D;}
</style>
<desc>Created with sketchtool.</desc>
<g id="Modals">
	<g id="Min-icons" transform="translate(-492.000000, -88.000000)">
		<g id="Group-32-Copy" transform="translate(492.000000, 88.000000)">
			<path id="Combined-Shape" class="st0" d="M13.1,0c2.1,0,4,0.4,5.9,1.3c0.2,0.1,0.6,0.3,0.8,0.4l-1.2,1.1L16.8,1l-3.2,2.7
				l-1.9-1.9L6.1,6.8l3.6,4L8.3,12l3.6,4l-1.4,1.3l5.2,5.6l3-2.8l2.7,3c-0.6,0.4-1.2,0.8-1.8,1.2c-1.9,1.1-4.1,1.7-6.4,1.7
				C6,25.9,0,20.1,0,12.9S5.9,0,13.1,0z M10.8,12.2L14,9.4l2.8,3.1l-3.2,2.8L10.8,12.2z M13,17.5l3.2-2.8l2.8,3.1l-3.2,2.8L13,17.5z
				 M8.6,6.9l3.2-2.8l2.8,3.1L11.4,10L8.6,6.9z M14.3,5.4l2.3-2l2.1,2.3l-2.3,2.2L14.3,5.4z M18.5,14.9l2.3-2l2.1,2.4l-2.3,2
				L18.5,14.9z M20.5,19.6l2.3-2l2.1,2.3L22.6,22L20.5,19.6z M21.5,9l1.6-1.4l1.4,1.5L23,10.5L21.5,9z M19.5,4.3L21,2.9l1.4,1.5
				l-1.5,1.4L19.5,4.3z M23.4,13.5l1.5-1.4l1.4,1.5L24.7,15L23.4,13.5z M16.4,10l2.3-2l2.1,2.3l-2.3,2L16.4,10z"/>
			<g id="Group-31" transform="translate(107.000000, 15.000000)">
				<g id="Group-27" transform="translate(0.229422, 3.802652)">
					<g id="Fill-25-Clipped">
						<g id="path-1_2_-7">
						</g>
						<polygon id="Fill-25" class="st0" points="-65.2,-12.8 -63.3,-12.8 -60.3,-1.5 -60.2,-1.5 -58,-12.8 -55.5,-12.8 -59,2.3 
							-61.2,2.3 -64.2,-8.3 -64.3,-8.3 -67.2,2.3 -69.4,2.3 -73,-12.8 -70.5,-12.8 -68.2,-1.5 -68,-1.5 						"/>
					</g>
				</g>
				<path id="Fill-28" class="st0" d="M-52.2-0.3h4.9c-0.1-2.3-1.2-3.1-2.3-3.1C-51-3.5-52-2.5-52.2-0.3 M-45.6,3.7v1.6
					c-0.9,0.5-2.2,1-3.8,1c-3.6,0-5-2.3-5-5.6c0-3.2,1.6-5.6,4.8-5.6c2.7,0,4.3,1.7,4.3,5.2V1h-7c0,2.6,1.1,3.7,3.3,3.7
					C-47.8,4.9-46.7,4.4-45.6,3.7"/>
				<path id="Fill-30" class="st0" d="M-40.3,4.6c0.7,0.3,1.4,0.3,2,0.3c1.6,0,2.8-1,2.8-4.4c0-2.7-0.9-3.6-2.5-3.6
					c-0.8,0-1.5,0.2-2.3,0.6L-40.3,4.6L-40.3,4.6z M-40.3-4c0.6-0.3,1.8-0.8,2.9-0.8c2.7,0,4.1,1.8,4.1,5.3c0,4-1.9,5.9-5,5.9
					c-1.2,0-2.9-0.3-4.2-1.1V-9.5l2.2-0.5L-40.3-4L-40.3-4z"/>
				<polygon id="Fill-32" class="st0" points="-23.2,6.1 -24.5,6.1 -28.9,-4.6 -29,-4.6 -29,6.1 -31,6.1 -31,-9 -28.4,-9 -23.6,2.9 
					-23.5,2.9 -19,-9 -16.3,-9 -16.3,6.1 -18.6,6.1 -18.6,-4.9 -18.8,-4.9 				"/>
				<path id="Fill-34" class="st0" d="M-6.9,0.8c0-2.9-1.2-4.1-2.7-4.1c-1.4,0-2.7,1.2-2.7,4.1s1.2,4.1,2.7,4.1
					C-7.9,4.9-6.9,3.7-6.9,0.8 M-14.4,0.8c0-3.8,2.1-5.6,4.9-5.6S-4.5-3-4.5,0.8c0,3.7-2,5.6-4.9,5.6C-12.4,6.4-14.4,4.3-14.4,0.8"
					/>
				<path id="Fill-36" class="st0" d="M-2.9-3.3C-2-3.9,0.2-5,2.6-5c2.6,0,3.5,1,3.5,3.2V6H3.9v-7.2c0-1.7-0.8-1.9-1.9-1.9
					c-0.8,0-2,0.4-2.6,0.8V6h-2.2L-2.9-3.3L-2.9-3.3z"/>
				<path id="Fill-38" class="st0" d="M10.8-0.3h4.9c-0.1-2.3-1.2-3.1-2.3-3.1C12.1-3.5,11.1-2.5,10.8-0.3 M17.5,3.7v1.6
					c-0.9,0.5-2.2,1-3.8,1c-3.6,0-5-2.3-5-5.6c0-3.2,1.6-5.6,4.9-5.6C16.3-5,18-3.2,18,0.2v0.9h-7c0,2.6,1.1,3.7,3.3,3.7
					C15.2,4.9,16.3,4.4,17.5,3.7"/>
				<path id="Fill-40" class="st0" d="M26.7-4.9H29L25.1,5.8c-1.1,2.9-2.5,4.4-4.9,4.4V8.5c1.5,0,2.3-1.2,2.8-2.7L19-4.9h2.3L24.1,3
					h0.1L26.7-4.9z"/>
			</g>
		</g>
	</g>
</g>
</svg>
